<svg width="21" height="18" viewBox="0 0 21 18" fill="none" xmlns="http://www.w3.org/2000/svg">
<path d="M8.33333 7.8125C7.1875 7.8125 6.25 7.44792 5.52083 6.71875C4.79167 5.98958 4.42708 5.05208 4.42708 3.90625C4.42708 2.76042 4.79167 1.82292 5.52083 1.09375C6.25 0.364584 7.1875 0 8.33333 0C9.47917 0 10.4167 0.364584 11.1458 1.09375C11.875 1.82292 12.2396 2.76042 12.2396 3.90625C12.2396 5.05208 11.875 5.98958 11.1458 6.71875C10.4167 7.44792 9.47917 7.8125 8.33333 7.8125ZM0 16.1719V13.724C0 13.1163 0.15191 12.5694 0.455729 12.0833C0.759549 11.5972 1.19792 11.224 1.77083 10.9635C3.02083 10.408 4.17969 10.0087 5.2474 9.76563C6.3151 9.52257 7.34375 9.40104 8.33333 9.40104H8.93229C8.82812 9.6441 8.75 9.88281 8.69792 10.1172C8.64583 10.3516 8.60243 10.6337 8.56771 10.9635H8.33333C7.32639 10.9635 6.34115 11.072 5.3776 11.2891C4.41406 11.5061 3.42014 11.8663 2.39583 12.3698C2.11806 12.5087 1.90972 12.704 1.77083 12.9557C1.63194 13.2075 1.5625 13.4635 1.5625 13.724V14.6094H8.56771C8.65451 14.9219 8.75868 15.204 8.88021 15.4557C9.00174 15.7075 9.14931 15.9462 9.32292 16.1719H0ZM15.2865 17.3177L15.026 15.599C14.7309 15.5122 14.4314 15.3863 14.1276 15.2214C13.8238 15.0564 13.5677 14.8698 13.3594 14.6615L11.9271 14.974L11.276 13.8802L12.5 12.7344C12.4653 12.5781 12.4479 12.3611 12.4479 12.0833C12.4479 11.8056 12.4653 11.5885 12.5 11.4323L11.276 10.2865L11.9271 9.19271L13.3594 9.50521C13.5677 9.29688 13.8238 9.11024 14.1276 8.94531C14.4314 8.78038 14.7309 8.65452 15.026 8.56771L15.2865 6.84896H16.6927L16.9531 8.56771C17.2483 8.65452 17.5477 8.78038 17.8516 8.94531C18.1554 9.11024 18.4115 9.29688 18.6198 9.50521L20.0521 9.19271L20.7031 10.2865L19.4792 11.4323C19.5139 11.5885 19.5312 11.8056 19.5312 12.0833C19.5312 12.3611 19.5139 12.5781 19.4792 12.7344L20.7031 13.8802L20.0521 14.974L18.6198 14.6615C18.4115 14.8698 18.1554 15.0564 17.8516 15.2214C17.5477 15.3863 17.2483 15.5122 16.9531 15.599L16.6927 17.3177H15.2865ZM15.9896 14.1667C16.6146 14.1667 17.1181 13.9757 17.5 13.5938C17.8819 13.2118 18.0729 12.7083 18.0729 12.0833C18.0729 11.4583 17.8819 10.9549 17.5 10.5729C17.1181 10.191 16.6146 10 15.9896 10C15.3646 10 14.8611 10.191 14.4792 10.5729C14.0972 10.9549 13.9062 11.4583 13.9062 12.0833C13.9062 12.7083 14.0972 13.2118 14.4792 13.5938C14.8611 13.9757 15.3646 14.1667 15.9896 14.1667ZM8.33333 6.25C9.01042 6.25 9.57031 6.02865 10.013 5.58594C10.4557 5.14323 10.6771 4.58333 10.6771 3.90625C10.6771 3.22917 10.4557 2.66927 10.013 2.22656C9.57031 1.78385 9.01042 1.5625 8.33333 1.5625C7.65625 1.5625 7.09635 1.78385 6.65365 2.22656C6.21094 2.66927 5.98958 3.22917 5.98958 3.90625C5.98958 4.58333 6.21094 5.14323 6.65365 5.58594C7.09635 6.02865 7.65625 6.25 8.33333 6.25Z" fill="#999999"/>
</svg>
