<svg width="33" height="32" viewBox="0 0 33 32" fill="none" xmlns="http://www.w3.org/2000/svg">
<rect width="33" height="32" rx="16" fill="#F2F2F2"/>
<path d="M16.5 19.8982C17.4 19.8982 18.1562 19.5881 18.7687 18.9679C19.3812 18.3476 19.6875 17.5755 19.6875 16.6515C19.6875 15.7402 19.3812 14.9776 18.7687 14.3637C18.1562 13.7498 17.4 13.4428 16.5 13.4428C15.5875 13.4428 14.8281 13.7498 14.2219 14.3637C13.6156 14.9776 13.3125 15.7402 13.3125 16.6515C13.3125 17.5755 13.6156 18.3476 14.2219 18.9679C14.8281 19.5881 15.5875 19.8982 16.5 19.8982ZM16.5 18.759C15.9 18.759 15.4062 18.5597 15.0187 18.1609C14.6312 17.7622 14.4375 17.2591 14.4375 16.6515C14.4375 16.0566 14.6312 15.563 15.0187 15.1706C15.4062 14.7782 15.9 14.582 16.5 14.582C17.0875 14.582 17.5781 14.7782 17.9719 15.1706C18.3656 15.563 18.5625 16.0566 18.5625 16.6515C18.5625 17.2591 18.3656 17.7622 17.9719 18.1609C17.5781 18.5597 17.0875 18.759 16.5 18.759V18.759ZM10.125 22.6702C9.825 22.6702 9.5625 22.5563 9.3375 22.3285C9.1125 22.1006 9 21.8348 9 21.531V11.791C9 11.4999 9.1125 11.2372 9.3375 11.0031C9.5625 10.7689 9.825 10.6518 10.125 10.6518H12.8813L14.25 9H18.75L20.1188 10.6518H22.875C23.1625 10.6518 23.4219 10.7689 23.6531 11.0031C23.8844 11.2372 24 11.4999 24 11.791V21.531C24 21.8348 23.8844 22.1006 23.6531 22.3285C23.4219 22.5563 23.1625 22.6702 22.875 22.6702H10.125ZM22.875 21.531V11.791H19.5938L18.225 10.1392H14.775L13.4062 11.791H10.125V21.531H22.875Z" fill="#231F20"/>
</svg>
