<svg width="334" height="131" viewBox="0 0 334 131" fill="none" xmlns="http://www.w3.org/2000/svg">
<g clip-path="url(#clip0_1177_5019)">
<path d="M252.426 0H74.7249C70.7013 0 67.4395 3.28442 67.4395 7.33596V120.693C67.4395 124.745 70.7013 128.029 74.7249 128.029H252.426C256.449 128.029 259.711 124.745 259.711 120.693V7.33596C259.711 3.28442 256.449 0 252.426 0Z" fill="#7F8487" fill-opacity="0.3"/>
<path d="M59.9238 119.762H268.236V122.003C268.236 123.179 268.006 124.345 267.559 125.432C267.112 126.52 266.456 127.508 265.629 128.34C264.803 129.172 263.822 129.832 262.742 130.283C261.662 130.733 260.505 130.965 259.336 130.965H68.8244C67.6555 130.965 66.4981 130.733 65.4183 130.283C64.3384 129.832 63.3572 129.172 62.5307 128.34C61.7042 127.508 61.0486 126.52 60.6013 125.432C60.1541 124.345 59.9238 123.179 59.9238 122.003V119.762V119.762Z" fill="#7F8487" fill-opacity="0.3"/>
<path d="M254.01 5.08521H72.5996V113.201H254.01V5.08521Z" fill="#A0A0A0" fill-opacity="0.41"/>
<path d="M144.624 118.559L147.204 122.697H183.581L185.981 118.559H144.624Z" fill="#576369"/>
<path d="M249.015 8.74585H77.9749C77.0719 8.74585 76.3398 9.48298 76.3398 10.3923V111.213C76.3398 112.122 77.0719 112.859 77.9749 112.859H249.015C249.918 112.859 250.65 112.122 250.65 111.213V10.3923C250.65 9.48298 249.918 8.74585 249.015 8.74585Z" fill="#EBEBEB"/>
<path d="M250.46 113.01H76.1494L76.3394 16.5298H250.46V113.01Z" fill="white"/>
<path d="M90.6359 12.7637C90.6369 13.0418 90.5559 13.3139 90.4032 13.5455C90.2505 13.7772 90.033 13.9581 89.7781 14.0651C89.5233 14.1722 89.2426 14.2008 88.9717 14.1471C88.7007 14.0935 88.4517 13.9601 88.2561 13.7639C88.0605 13.5676 87.9271 13.3173 87.8729 13.0447C87.8186 12.7721 87.846 12.4893 87.9514 12.2324C88.0569 11.9754 88.2357 11.7557 88.4652 11.6011C88.6947 11.4465 88.9646 11.364 89.2408 11.364C89.6099 11.364 89.964 11.5113 90.2255 11.7737C90.487 12.036 90.6345 12.392 90.6359 12.7637V12.7637Z" fill="#263238"/>
<path d="M82.215 12.7637C82.216 13.0418 82.135 13.3139 81.9823 13.5455C81.8296 13.7772 81.6121 13.9581 81.3572 14.0651C81.1024 14.1722 80.8217 14.2008 80.5508 14.1471C80.2798 14.0935 80.0308 13.9601 79.8352 13.7639C79.6396 13.5676 79.5062 13.3173 79.452 13.0447C79.3977 12.7721 79.4251 12.4893 79.5305 12.2324C79.636 11.9754 79.8148 11.7557 80.0443 11.6011C80.2738 11.4465 80.5437 11.364 80.8199 11.364C81.189 11.364 81.5431 11.5113 81.8046 11.7737C82.0661 12.036 82.2136 12.392 82.215 12.7637V12.7637Z" fill="#263238"/>
<path d="M86.245 12.7637C86.245 13.0406 86.1635 13.3112 86.0107 13.5414C85.858 13.7716 85.6409 13.951 85.3869 14.0569C85.1329 14.1629 84.8534 14.1906 84.5837 14.1366C84.3141 14.0826 84.0664 13.9492 83.872 13.7535C83.6776 13.5577 83.5452 13.3083 83.4916 13.0368C83.4379 12.7653 83.4654 12.4839 83.5707 12.2281C83.6759 11.9723 83.854 11.7537 84.0826 11.5999C84.3112 11.4461 84.58 11.364 84.8549 11.364C85.2236 11.364 85.5772 11.5115 85.8379 11.774C86.0986 12.0365 86.245 12.3925 86.245 12.7637Z" fill="#263238"/>
<path d="M258.061 118.558C258.061 118.624 215.383 118.679 162.755 118.679C110.127 118.679 67.4395 118.624 67.4395 118.558C67.4395 118.493 110.107 118.433 162.755 118.433C215.403 118.433 258.061 118.498 258.061 118.558Z" fill="#263238"/>
<path d="M176.501 41.9418V61.1225H171.082V41.9418C171.082 34.6462 165.54 28.7177 158.726 28.7177C151.912 28.7177 146.37 34.6497 146.37 41.9418V61.1225H140.951V41.9418C140.951 31.4939 148.925 23 158.726 23C168.527 23 176.501 31.4974 176.501 41.9418Z" fill="#DBDBDB"/>
<path d="M140.947 46.9319L146.37 47.1498V61.1259H140.947V46.9319Z" fill="#C7C7C7"/>
<path d="M176.501 48.3762V61.1259H171.078V48.1548L176.501 48.3762Z" fill="#C7C7C7"/>
<path d="M183.445 54.0271H134V95.0594H183.445V54.0271Z" fill="url(#paint0_linear_1177_5019)"/>
<path opacity="0.1" d="M158.723 54.0271H134V95.0594H158.723V54.0271Z" fill="black"/>
<path d="M161.046 74.2728L163.116 84.0916H154.33L156.4 74.2728C155.163 73.4891 154.33 72.1256 154.33 70.5617C154.33 68.1123 156.298 66.1689 158.723 66.1689C161.148 66.1689 163.116 68.1123 163.116 70.5617C163.116 72.1291 162.283 73.4926 161.046 74.2728Z" fill="#231F20"/>
<path d="M204.859 61.9951L203.344 61.7522C204.308 55.7467 200.401 50.0369 194.451 48.7507C189.496 47.6809 184.58 50.0105 182.149 54.1672L180.791 53.4532C183.537 48.7051 189.129 46.0365 194.773 47.253C201.522 48.7123 205.95 55.1866 204.859 61.9951Z" fill="url(#paint1_linear_1177_5019)"/>
<path d="M202.942 62.0432L202.998 61.697C203.933 55.8767 200.146 50.34 194.376 49.0946C189.676 48.0801 184.883 50.1885 182.452 54.3452L182.281 54.6337L180.303 53.5951L180.485 53.2778C183.394 48.2436 189.167 45.6856 194.845 46.9117C201.774 48.407 206.323 55.0568 205.202 62.0504L205.147 62.3966L202.942 62.0432ZM194.526 48.4094C200.545 49.7077 204.534 55.4006 203.743 61.4614L204.565 61.5937C205.426 55.0977 201.151 48.9912 194.703 47.5993C189.443 46.4645 184.099 48.7556 181.286 53.3163L182.022 53.7033C184.654 49.4769 189.636 47.354 194.526 48.4094Z" fill="url(#paint2_linear_1177_5019)"/>
<path d="M179.525 49.602L179.869 49.3303L180.689 50.4242L181.718 49.5491L181.973 49.8905L180.593 51.0637L179.525 49.602Z" fill="url(#paint3_linear_1177_5019)"/>
<path d="M180.564 51.316L179.287 49.5706L179.903 49.085L180.715 50.174L181.747 49.2989L182.208 49.9192L180.564 51.316ZM179.763 49.6355L180.624 50.8135L181.739 49.8663L181.691 49.8014L180.66 50.6765L179.838 49.5754L179.763 49.6355Z" fill="url(#paint4_linear_1177_5019)"/>
<path d="M179.097 58.2205L180.611 58.4633C179.647 64.4688 183.554 70.1786 189.504 71.4648C194.459 72.5346 199.376 70.205 201.806 66.0483L203.164 66.7623C200.419 71.5105 194.827 74.179 189.182 72.9625C182.434 71.5056 178.005 65.0313 179.097 58.2205Z" fill="url(#paint5_linear_1177_5019)"/>
<path d="M189.107 73.304C182.179 71.8087 177.63 65.1589 178.75 58.1653L178.806 57.8191L181.013 58.1725L180.957 58.5187C180.022 64.3391 183.809 69.8758 189.579 71.1211C194.279 72.1356 199.072 70.0272 201.503 65.8705L201.674 65.582L203.652 66.6206L203.47 66.9379C200.558 71.9722 194.786 74.5301 189.107 73.304ZM179.392 58.6245C178.532 65.1204 182.806 71.2269 189.254 72.6189C194.514 73.7536 199.859 71.4625 202.671 66.9019L201.936 66.5148C199.301 70.7413 194.32 72.8641 189.43 71.8087C183.41 70.5105 179.421 64.8175 180.212 58.7567L179.392 58.6245Z" fill="url(#paint6_linear_1177_5019)"/>
<path d="M182.384 59.5716L181.682 60.127L180.021 57.9008L177.927 59.6798L177.41 58.985L180.213 56.6025L182.384 59.5716Z" fill="url(#paint7_linear_1177_5019)"/>
<path d="M177.869 60.1896L176.934 58.9299L180.275 56.093L182.869 59.6391L181.619 60.6248L179.968 58.4106L177.869 60.1896ZM177.888 59.0405L177.984 59.1703L180.078 57.3912L181.747 59.6271L181.901 59.5045L180.153 57.1148L177.888 59.0405Z" fill="url(#paint8_linear_1177_5019)"/>
<path d="M333.999 130.532C333.999 130.602 259.225 130.663 166.989 130.663C74.754 130.663 -0.0205078 130.602 -0.0205078 130.532C-0.0205078 130.461 74.739 130.401 166.989 130.401C259.24 130.401 333.999 130.456 333.999 130.532Z" fill="#263238"/>
</g>
<defs>
<linearGradient id="paint0_linear_1177_5019" x1="132.95" y1="72.4709" x2="183.827" y2="72.4709" gradientUnits="userSpaceOnUse">
<stop stop-color="#EA3CD5"/>
<stop offset="1" stop-color="#E5FE57"/>
</linearGradient>
<linearGradient id="paint1_linear_1177_5019" x1="178.92" y1="54.4775" x2="208.205" y2="54.4775" gradientUnits="userSpaceOnUse">
<stop stop-color="#6666FF"/>
<stop offset="0.0729167" stop-color="#6872F4"/>
<stop offset="0.520833" stop-color="#72BFAF"/>
<stop offset="1" stop-color="#7BFC79"/>
</linearGradient>
<linearGradient id="paint2_linear_1177_5019" x1="178.367" y1="54.5023" x2="208.663" y2="54.5023" gradientUnits="userSpaceOnUse">
<stop stop-color="#6666FF"/>
<stop offset="0.0729167" stop-color="#6872F4"/>
<stop offset="0.520833" stop-color="#72BFAF"/>
<stop offset="1" stop-color="#7BFC79"/>
</linearGradient>
<linearGradient id="paint3_linear_1177_5019" x1="179.336" y1="50.197" x2="182.294" y2="50.197" gradientUnits="userSpaceOnUse">
<stop stop-color="#6666FF"/>
<stop offset="0.0729167" stop-color="#6872F4"/>
<stop offset="0.520833" stop-color="#72BFAF"/>
<stop offset="1" stop-color="#7BFC79"/>
</linearGradient>
<linearGradient id="paint4_linear_1177_5019" x1="179.062" y1="50.2005" x2="182.592" y2="50.2005" gradientUnits="userSpaceOnUse">
<stop stop-color="#6666FF"/>
<stop offset="0.0729167" stop-color="#6872F4"/>
<stop offset="0.520833" stop-color="#72BFAF"/>
<stop offset="1" stop-color="#7BFC79"/>
</linearGradient>
<linearGradient id="paint5_linear_1177_5019" x1="177.06" y1="65.738" x2="206.346" y2="65.738" gradientUnits="userSpaceOnUse">
<stop stop-color="#6666FF"/>
<stop offset="0.0729167" stop-color="#6872F4"/>
<stop offset="0.520833" stop-color="#72BFAF"/>
<stop offset="1" stop-color="#7BFC79"/>
</linearGradient>
<linearGradient id="paint6_linear_1177_5019" x1="176.645" y1="65.7135" x2="206.944" y2="65.7135" gradientUnits="userSpaceOnUse">
<stop stop-color="#6666FF"/>
<stop offset="0.0729167" stop-color="#6872F4"/>
<stop offset="0.520833" stop-color="#72BFAF"/>
<stop offset="1" stop-color="#7BFC79"/>
</linearGradient>
<linearGradient id="paint7_linear_1177_5019" x1="177.026" y1="58.3648" x2="183.037" y2="58.3648" gradientUnits="userSpaceOnUse">
<stop stop-color="#6666FF"/>
<stop offset="0.0729167" stop-color="#6872F4"/>
<stop offset="0.520833" stop-color="#72BFAF"/>
<stop offset="1" stop-color="#7BFC79"/>
</linearGradient>
<linearGradient id="paint8_linear_1177_5019" x1="176.475" y1="58.3589" x2="183.649" y2="58.3589" gradientUnits="userSpaceOnUse">
<stop stop-color="#6666FF"/>
<stop offset="0.0729167" stop-color="#6872F4"/>
<stop offset="0.520833" stop-color="#72BFAF"/>
<stop offset="1" stop-color="#7BFC79"/>
</linearGradient>
<clipPath id="clip0_1177_5019">
<rect width="334" height="131" fill="white"/>
</clipPath>
</defs>
</svg>
