<svg width="15" height="14" viewBox="0 0 15 14" fill="none" xmlns="http://www.w3.org/2000/svg">
<path d="M5.88926 10.745H9.91426C10.0776 10.745 10.2147 10.71 10.3255 10.64C10.4363 10.57 10.5326 10.465 10.6143 10.325L11.9793 7.14C12.0026 7.08167 12.023 6.99417 12.0405 6.8775C12.058 6.76083 12.0668 6.67333 12.0668 6.615V6.195C12.0668 6.03167 12.0288 5.91208 11.953 5.83625C11.8772 5.76042 11.7576 5.7225 11.5943 5.7225H7.84926L8.35676 3.3075C8.38009 3.21417 8.38009 3.12667 8.35676 3.045C8.33342 2.96333 8.29259 2.89333 8.23426 2.835L7.86676 2.45L5.04926 5.495L4.90926 5.775C4.86259 5.86833 4.83926 5.9675 4.83926 6.0725V9.695C4.83926 9.96333 4.94426 10.2054 5.15426 10.4213C5.36426 10.6371 5.60926 10.745 5.88926 10.745ZM7.98926 14C7.03259 14 6.12842 13.8162 5.27676 13.4487C4.42509 13.0812 3.68134 12.5796 3.04551 11.9438C2.40967 11.3079 1.90801 10.5642 1.54051 9.7125C1.17301 8.86083 0.989258 7.95667 0.989258 7C0.989258 6.03167 1.17301 5.12167 1.54051 4.27C1.90801 3.41833 2.40967 2.6775 3.04551 2.0475C3.68134 1.4175 4.42509 0.91875 5.27676 0.55125C6.12842 0.18375 7.03259 0 7.98926 0C8.95759 0 9.86759 0.18375 10.7193 0.55125C11.5709 0.91875 12.3118 1.4175 12.9418 2.0475C13.5718 2.6775 14.0705 3.41833 14.438 4.27C14.8055 5.12167 14.9893 6.03167 14.9893 7C14.9893 7.95667 14.8055 8.86083 14.438 9.7125C14.0705 10.5642 13.5718 11.3079 12.9418 11.9438C12.3118 12.5796 11.5709 13.0812 10.7193 13.4487C9.86759 13.8162 8.95759 14 7.98926 14Z" fill="#6666FF"/>
</svg>
