<svg width="27" height="27" viewBox="0 0 27 27" fill="none" xmlns="http://www.w3.org/2000/svg">
<circle cx="13.5" cy="13.5" r="13.5" fill="#6666FF"/>
<path d="M16.4732 7.53543C17.1867 6.82152 18.3445 6.82152 19.058 7.53543L19.3652 7.84317C20.0787 8.55715 20.0787 9.71471 19.3652 10.4282L14.3582 15.4378C14.1373 15.6561 13.8656 15.8161 13.566 15.9024L11.027 16.6286C10.8137 16.6895 10.5852 16.6286 10.4277 16.4508C10.2729 16.3163 10.2119 16.0878 10.2729 15.8745L10.999 13.3354C11.0854 13.0358 11.2453 12.7641 11.4637 12.5432L16.4732 7.53543ZM18.1744 8.39719C17.9586 8.15928 17.5727 8.15928 17.334 8.39719L16.5951 9.1358L17.7656 10.3063L18.5045 9.54459C18.7432 9.32877 18.7432 8.94283 18.5045 8.70492L18.1744 8.39719ZM12.1721 13.6706L11.7455 15.1559L13.2309 14.7294C13.3324 14.7014 13.4213 14.6481 13.4949 14.5745L16.9049 11.1671L15.7344 9.99654L12.327 13.4065C12.2533 13.4801 12.2 13.569 12.1721 13.6706ZM12.0781 8.52643C12.4158 8.52643 12.6875 8.79938 12.6875 9.1358C12.6875 9.4735 12.4158 9.74518 12.0781 9.74518H9.23438C8.6735 9.74518 8.21875 10.1997 8.21875 10.7608V17.6671C8.21875 18.2282 8.6735 18.6827 9.23438 18.6827H16.1406C16.7018 18.6827 17.1563 18.2282 17.1563 17.6671V14.8233C17.1563 14.4856 17.4279 14.2139 17.7656 14.2139C18.1033 14.2139 18.375 14.4856 18.375 14.8233V17.6671C18.375 18.901 17.3746 19.9014 16.1406 19.9014H9.23438C8.00039 19.9014 7 18.901 7 17.6671V10.7608C7 9.52682 8.00039 8.52643 9.23438 8.52643H12.0781Z" fill="white"/>
</svg>
