<svg width="21" height="24" viewBox="0 0 21 24" fill="none" xmlns="http://www.w3.org/2000/svg">
<path d="M1.57303 21.843C1.13608 21.843 0.764669 21.6837 0.458802 21.3652C0.152934 21.0466 0 20.6598 0 20.2048V3.82253C0 3.36746 0.152934 2.98066 0.458802 2.66212C0.764669 2.34357 1.13608 2.1843 1.57303 2.1843H6.94757C7.03496 1.54721 7.31461 1.02389 7.78652 0.614334C8.25843 0.204778 8.80899 0 9.4382 0C10.0674 0 10.618 0.204778 11.0899 0.614334C11.5618 1.02389 11.8414 1.54721 11.9288 2.1843H17.3034C17.7403 2.1843 18.1117 2.34357 18.4176 2.66212C18.7235 2.98066 18.8764 3.36746 18.8764 3.82253V12.8055C18.6317 12.6598 18.3739 12.5415 18.103 12.4505C17.8321 12.3595 17.5655 12.2867 17.3034 12.2321V3.82253H1.57303V20.2048H9.67416C9.74407 20.496 9.82272 20.7782 9.91011 21.0512C9.9975 21.3242 10.1024 21.5882 10.2247 21.843H1.57303ZM1.57303 18.9215V20.2048V3.82253V12.2321V12.1229V18.9215ZM4.19476 17.4744H9.72659C9.7965 17.1832 9.87516 16.901 9.96255 16.628C10.0499 16.3549 10.1635 16.091 10.3034 15.8362H4.19476V17.4744ZM4.19476 12.8328H13.2135C13.4582 12.7053 13.6941 12.6007 13.9213 12.5188C14.1486 12.4369 14.402 12.3595 14.6816 12.2867V11.1945H4.19476V12.8328ZM4.19476 8.19113H14.6816V6.5529H4.19476V8.19113ZM9.4382 3.35836C9.6829 3.35836 9.897 3.2628 10.0805 3.07167C10.264 2.88055 10.3558 2.65757 10.3558 2.40273C10.3558 2.1479 10.264 1.92491 10.0805 1.73379C9.897 1.54266 9.6829 1.4471 9.4382 1.4471C9.19351 1.4471 8.9794 1.54266 8.79588 1.73379C8.61236 1.92491 8.5206 2.1479 8.5206 2.40273C8.5206 2.65757 8.61236 2.88055 8.79588 3.07167C8.9794 3.2628 9.19351 3.35836 9.4382 3.35836ZM16.0712 24C14.7079 24 13.5456 23.4949 12.5843 22.4846C11.623 21.4744 11.1423 20.2776 11.1423 18.8942C11.1423 17.4744 11.623 16.2594 12.5843 15.2491C13.5456 14.2389 14.7079 13.7338 16.0712 13.7338C17.417 13.7338 18.5749 14.2389 19.5449 15.2491C20.515 16.2594 21 17.4744 21 18.8942C21 20.2776 20.515 21.4744 19.5449 22.4846C18.5749 23.4949 17.417 24 16.0712 24ZM15.6779 22.3618H16.5431V19.3584H19.427V18.4573H16.5431V15.4539H15.6779V18.4573H12.794V19.3584H15.6779V22.3618Z" fill="#231F20"/>
</svg>
