<svg width="334" height="131" viewBox="0 0 334 131" fill="none" xmlns="http://www.w3.org/2000/svg">
<g clip-path="url(#clip0_1123_7115)">
<path d="M252.426 0H74.7249C70.7013 0 67.4395 3.28442 67.4395 7.33596V120.693C67.4395 124.745 70.7013 128.029 74.7249 128.029H252.426C256.449 128.029 259.711 124.745 259.711 120.693V7.33596C259.711 3.28442 256.449 0 252.426 0Z" fill="#7F8487" fill-opacity="0.3"/>
<path d="M59.9238 119.762H268.236V122.003C268.236 123.179 268.006 124.345 267.559 125.432C267.112 126.52 266.456 127.508 265.629 128.34C264.803 129.172 263.822 129.832 262.742 130.283C261.662 130.733 260.505 130.965 259.336 130.965H68.8244C67.6555 130.965 66.4981 130.733 65.4183 130.283C64.3384 129.832 63.3572 129.172 62.5307 128.34C61.7042 127.508 61.0486 126.52 60.6013 125.432C60.1541 124.345 59.9238 123.179 59.9238 122.003V119.762Z" fill="#7F8487" fill-opacity="0.3"/>
<path d="M254.01 5.08533H72.5996V113.201H254.01V5.08533Z" fill="#A0A0A0" fill-opacity="0.41"/>
<path d="M144.624 118.559L147.204 122.697H183.581L185.981 118.559H144.624Z" fill="#576369"/>
<path d="M249.015 8.74573H77.9749C77.0719 8.74573 76.3398 9.48286 76.3398 10.3922V111.213C76.3398 112.122 77.0719 112.859 77.9749 112.859H249.015C249.918 112.859 250.65 112.122 250.65 111.213V10.3922C250.65 9.48286 249.918 8.74573 249.015 8.74573Z" fill="#EBEBEB"/>
<path d="M250.46 113.01H76.1499L76.3399 16.5298H250.46V113.01Z" fill="white"/>
<path d="M90.6359 12.7636C90.6369 13.0417 90.5559 13.3138 90.4032 13.5454C90.2505 13.7771 90.033 13.9579 89.7781 14.065C89.5233 14.1721 89.2426 14.2007 88.9717 14.147C88.7007 14.0934 88.4517 13.96 88.2561 13.7637C88.0605 13.5675 87.9271 13.3172 87.8729 13.0446C87.8186 12.7719 87.846 12.4892 87.9514 12.2322C88.0569 11.9753 88.2357 11.7556 88.4652 11.601C88.6947 11.4464 88.9646 11.3639 89.2408 11.3639C89.6099 11.3639 89.964 11.5112 90.2255 11.7736C90.487 12.0359 90.6345 12.3919 90.6359 12.7636Z" fill="#263238"/>
<path d="M82.215 12.7636C82.216 13.0417 82.135 13.3138 81.9823 13.5454C81.8296 13.7771 81.6121 13.9579 81.3572 14.065C81.1024 14.1721 80.8217 14.2007 80.5508 14.147C80.2798 14.0934 80.0308 13.96 79.8352 13.7637C79.6396 13.5675 79.5062 13.3172 79.452 13.0446C79.3977 12.7719 79.4251 12.4892 79.5305 12.2322C79.636 11.9753 79.8148 11.7556 80.0443 11.601C80.2738 11.4464 80.5437 11.3639 80.8199 11.3639C81.189 11.3639 81.5431 11.5112 81.8046 11.7736C82.0661 12.0359 82.2136 12.3919 82.215 12.7636Z" fill="#263238"/>
<path d="M86.2455 12.7636C86.2455 13.0405 86.164 13.3111 86.0112 13.5413C85.8585 13.7714 85.6414 13.9508 85.3874 14.0568C85.1334 14.1627 84.8539 14.1905 84.5842 14.1364C84.3146 14.0824 84.0669 13.9491 83.8725 13.7534C83.6781 13.5576 83.5457 13.3082 83.492 13.0367C83.4384 12.7652 83.4659 12.4837 83.5711 12.228C83.6764 11.9722 83.8545 11.7536 84.0831 11.5998C84.3117 11.446 84.5805 11.3639 84.8554 11.3639C85.2241 11.3639 85.5777 11.5114 85.8384 11.7739C86.099 12.0364 86.2455 12.3924 86.2455 12.7636Z" fill="#263238"/>
<path d="M258.061 118.559C258.061 118.624 215.383 118.679 162.755 118.679C110.127 118.679 67.4395 118.624 67.4395 118.559C67.4395 118.493 110.107 118.433 162.755 118.433C215.403 118.433 258.061 118.498 258.061 118.559Z" fill="#263238"/>
<path d="M132.153 54.2166L203.072 53.552L205.147 102.094L131.713 101.566L132.153 54.2166Z" fill="url(#paint0_linear_1123_7115)"/>
<g opacity="0.3">
<path d="M132.158 54.2167L165.66 26.7962C166.348 26.2332 167.207 25.9258 168.093 25.9258C168.979 25.9258 169.838 26.2332 170.525 26.7962L203.072 53.547" fill="url(#paint1_linear_1123_7115)"/>
</g>
<path d="M131.718 101.56C131.628 101.48 137.294 95.2265 144.364 87.5934C151.435 79.9604 157.25 73.848 157.365 73.9285C157.48 74.0091 151.79 80.2625 144.714 87.8955C137.639 95.5286 131.803 101.646 131.718 101.56Z" fill="#263238"/>
<path d="M205.147 102.094C205.057 102.175 199.517 96.0523 192.772 88.4595C186.026 80.8668 180.631 74.6133 180.726 74.5328C180.821 74.4522 186.356 80.5747 193.102 88.1675C199.847 95.7602 205.222 102.014 205.147 102.094Z" fill="#263238"/>
<g opacity="0.5">
<path d="M203.073 53.552L167.52 82.2715L132.153 54.2166" fill="black" fill-opacity="0.7"/>
</g>
<path d="M135.733 56.8651L135.573 34.5601L197.672 33.6891L198.417 57.1571L167.515 81.8939L135.733 56.8651Z" fill="#FAFAFA"/>
<path d="M135.718 56.86L136.308 57.3031L137.999 58.6222L144.429 63.6572L167.565 81.8183H167.435L198.342 57.0714L198.292 57.1772C198.147 52.7011 197.997 48.0035 197.847 43.2253C197.742 40.0079 197.642 36.8308 197.542 33.7142L197.672 33.8401L135.578 34.6608L135.658 34.5752C135.693 41.5889 135.718 47.1626 135.733 50.9791C135.733 52.8874 135.733 54.3576 135.733 55.3596C135.733 55.8631 135.733 56.2306 135.733 56.4924C135.733 56.7542 135.733 56.8801 135.733 56.8801C135.733 56.8801 135.733 56.7542 135.733 56.5025C135.733 56.2507 135.733 55.8731 135.733 55.3797C135.733 54.3727 135.703 52.9126 135.678 51.0093C135.643 47.1828 135.588 41.604 135.523 34.5802V34.4946H135.603L197.672 33.5581H197.797V33.684C197.897 36.8006 197.997 39.9827 198.102 43.195C198.252 47.9783 198.402 52.6709 198.542 57.147V57.2124L198.492 57.2527L167.575 81.9795L167.505 82.0298L167.44 81.9795L144.329 63.7126L137.949 58.6524L136.283 57.3182C135.918 57.0211 135.718 56.86 135.718 56.86Z" fill="#263238"/>
<path d="M187.911 58.5014C187.911 58.5719 178.411 58.7078 166.7 58.8035C154.989 58.8991 145.489 58.9193 145.489 58.8488C145.489 58.7783 154.989 58.6373 166.7 58.5416C178.411 58.446 187.911 58.4258 187.911 58.5014Z" fill="#263238"/>
<path d="M187.927 65.7619C187.927 65.8323 178.866 65.9633 167.69 66.0589C156.515 66.1546 147.454 66.1647 147.454 66.0942C147.454 66.0237 156.51 65.8877 167.69 65.7971C178.871 65.7065 187.927 65.6863 187.927 65.7619Z" fill="#263238"/>
<path d="M179.996 72.1764C179.914 72.1953 179.83 72.2038 179.746 72.2016L179.036 72.2368L176.411 72.3023L167.756 72.4583C164.375 72.5238 161.315 72.5439 159.1 72.5389H156.475H155.76C155.677 72.5529 155.593 72.5529 155.51 72.5389C155.592 72.523 155.676 72.5146 155.76 72.5137L156.475 72.4835L159.095 72.413L167.751 72.2569C171.131 72.1915 174.191 72.1714 176.411 72.1764H179.031H179.746C179.829 72.1624 179.913 72.1624 179.996 72.1764Z" fill="#263238"/>
<path d="M172.016 78.2938C170.519 78.4262 169.017 78.4733 167.515 78.4348C166.014 78.4795 164.512 78.4392 163.015 78.314C164.511 78.1785 166.014 78.1314 167.515 78.173C169.017 78.1254 170.519 78.1658 172.016 78.2938Z" fill="#263238"/>
<path d="M334 130.532C334 130.602 259.225 130.663 166.99 130.663C74.7544 130.663 -0.0200195 130.602 -0.0200195 130.532C-0.0200195 130.461 74.7394 130.401 166.99 130.401C259.241 130.401 334 130.456 334 130.532Z" fill="#263238"/>
<path d="M165.272 54.8286L163.874 52.4367L161.097 51.8664L161.409 49.1617L159.644 47.1011L161.409 45.0588L161.097 42.3542L163.874 41.7838L165.272 39.3735L167.736 40.5143L170.201 39.3735L171.617 41.7838L174.376 42.3542L174.063 45.0588L175.829 47.1011L174.063 49.1617L174.376 51.8664L171.617 52.4367L170.201 54.8286L167.736 53.6879L165.272 54.8286ZM166.945 49.5481L171.12 45.4084L170.293 44.654L166.945 47.9658L165.198 46.1443L164.352 46.9723L166.945 49.5481Z" fill="#231F20"/>
</g>
<defs>
<linearGradient id="paint0_linear_1123_7115" x1="130.153" y1="75.3715" x2="205.714" y2="75.3715" gradientUnits="userSpaceOnUse">
<stop stop-color="#EA3CD5"/>
<stop offset="1" stop-color="#E5FE57"/>
</linearGradient>
<linearGradient id="paint1_linear_1123_7115" x1="130.652" y1="38.6424" x2="203.62" y2="38.6424" gradientUnits="userSpaceOnUse">
<stop stop-color="#EA3CD5"/>
<stop offset="1" stop-color="#E5FE57"/>
</linearGradient>
<clipPath id="clip0_1123_7115">
<rect width="334" height="131" fill="white"/>
</clipPath>
</defs>
</svg>
