<svg width="69" height="69" viewBox="0 0 69 69" fill="none" xmlns="http://www.w3.org/2000/svg">
<path d="M34.5 51.75C35.305 51.75 35.9806 51.4769 36.5269 50.9306C37.0731 50.3844 37.3462 49.7087 37.3462 48.9037C37.3462 48.0987 37.0731 47.4231 36.5269 46.8769C35.9806 46.3306 35.305 46.0575 34.5 46.0575C33.695 46.0575 33.0194 46.3306 32.4731 46.8769C31.9269 47.4231 31.6538 48.0987 31.6538 48.9037C31.6538 49.7087 31.9269 50.3844 32.4731 50.9306C33.0194 51.4769 33.695 51.75 34.5 51.75ZM32.1712 38.5538H37.3462V16.7325H32.1712V38.5538ZM34.5 69C29.785 69 25.3288 68.0944 21.1313 66.2831C16.9338 64.4719 13.2681 61.9994 10.1344 58.8656C7.00063 55.7319 4.52812 52.0662 2.71687 47.8688C0.905625 43.6712 0 39.1863 0 34.4138C0 29.6988 0.905625 25.2425 2.71687 21.045C4.52812 16.8475 7.00063 13.1963 10.1344 10.0913C13.2681 6.98625 16.9338 4.52812 21.1313 2.71687C25.3288 0.905625 29.8137 0 34.5863 0C39.3013 0 43.7575 0.905625 47.955 2.71687C52.1525 4.52812 55.8038 6.98625 58.9088 10.0913C62.0138 13.1963 64.4719 16.8475 66.2831 21.045C68.0944 25.2425 69 29.7275 69 34.5C69 39.215 68.0944 43.6712 66.2831 47.8688C64.4719 52.0662 62.0138 55.7319 58.9088 58.8656C55.8038 61.9994 52.1525 64.4719 47.955 66.2831C43.7575 68.0944 39.2725 69 34.5 69ZM34.5863 63.825C42.6937 63.825 49.5938 60.9644 55.2863 55.2431C60.9787 49.5219 63.825 42.5788 63.825 34.4138C63.825 26.3063 60.9787 19.4062 55.2863 13.7137C49.5938 8.02125 42.665 5.175 34.5 5.175C26.3925 5.175 19.4781 8.02125 13.7569 13.7137C8.03563 19.4062 5.175 26.335 5.175 34.5C5.175 42.6075 8.03563 49.5219 13.7569 55.2431C19.4781 60.9644 26.4212 63.825 34.5863 63.825Z" fill="url(#paint0_linear_4492_12385)"/>
<defs>
<linearGradient id="paint0_linear_4492_12385" x1="-1.46525" y1="31.0152" x2="69.5328" y2="31.0152" gradientUnits="userSpaceOnUse">
<stop stop-color="#EA3CD5"/>
<stop offset="1" stop-color="#E5FE57"/>
</linearGradient>
</defs>
</svg>
