<svg width="20" height="20" viewBox="0 0 20 20" fill="none" xmlns="http://www.w3.org/2000/svg">
<path d="M15.2029 20H4.60621V7.2L11.241 0L12.1718 0.775C12.2673 0.858333 12.3389 0.975 12.3866 1.125C12.4344 1.275 12.4582 1.45833 12.4582 1.675V1.925L11.3842 7.2H18.5203C18.9021 7.2 19.2363 7.35 19.5227 7.65C19.8091 7.95 19.9523 8.3 19.9523 8.7V10.75C19.9523 10.8667 19.9642 10.9875 19.9881 11.1125C20.0119 11.2375 20 11.3583 19.9523 11.475L16.9451 18.725C16.8019 19.075 16.5672 19.375 16.241 19.625C15.9149 19.875 15.5688 20 15.2029 20ZM6.03819 18.5H15.5131L18.5203 11.025V8.7H9.61814L10.8831 2.475L6.03819 7.825V18.5ZM4.60621 7.2V8.7H1.43198V18.5H4.60621V20H0V7.2H4.60621Z" fill="#999999"/>
</svg>
