<svg width="910" height="238" viewBox="0 0 910 238" fill="none" xmlns="http://www.w3.org/2000/svg">
<g clip-path="url(#clip0_4_23)">
<path d="M206.374 111.97L165.763 71.3584L125.13 30.7259C121.489 27.0843 115.59 27.0843 111.948 30.7259L71.337 71.3371L30.7258 111.97C27.0842 115.611 27.0842 121.51 30.7258 125.152L71.337 165.763L111.948 206.374C115.59 210.016 121.489 210.016 125.13 206.374L165.742 165.763L206.353 125.152C209.994 121.51 209.994 115.611 206.353 111.97H206.374ZM156.095 156.095C135.352 176.837 101.726 176.837 81.0054 156.095C60.2632 135.352 60.2632 101.726 81.0054 81.0054C101.748 60.2632 135.374 60.2632 156.095 81.0054C176.837 101.748 176.837 135.374 156.095 156.095Z" fill="#231F20"/>
<path d="M508.456 60.8382H528.495L563.293 147.363L598.239 60.8382H618.129L573.174 171.108H553.411L508.456 60.8382V60.8382Z" fill="#231F20"/>
<path d="M269.474 115.973C269.474 83.0924 292.026 59.0707 323.437 59.0707C354.849 59.0707 377.252 82.9433 377.252 115.973C377.252 149.003 354.551 172.876 323.437 172.876C292.324 172.876 269.474 149.003 269.474 115.973V115.973ZM358.214 115.973C358.214 92.5265 343.924 76.0222 323.416 76.0222C302.908 76.0222 288.47 92.5265 288.47 115.973C288.47 139.42 302.759 156.073 323.416 156.073C344.073 156.073 358.214 139.42 358.214 115.973Z" fill="#231F20"/>
<path d="M457.069 86.2016V171.108H441.587L440.117 156.371C435.411 166.828 426.552 172.876 415.201 172.876C397.079 172.876 384.684 160.78 384.684 141.486V86.2016H402.53V137.801C402.53 149.599 409.6 156.67 420.376 156.67C432.174 156.67 439.244 146.937 439.244 134.415V86.2016H457.09H457.069Z" fill="#231F20"/>
<path d="M502.003 86.2016C493.315 86.2016 486.968 91.5043 484.306 99.7671L482.986 86.2016H467.504V171.108H485.35V126.579C485.35 111.544 491.249 101.811 503.047 101.811H517.485L511.118 86.1803H502.003V86.2016Z" fill="#231F20"/>
<path d="M606.161 128.644C606.161 101.811 621.942 84.4127 645.665 84.4127C669.389 84.4127 685.318 101.662 685.318 128.644C685.318 155.626 669.687 172.876 645.665 172.876C621.644 172.876 606.161 155.626 606.161 128.644V128.644ZM667.344 128.644C667.344 111.246 658.656 100.64 645.665 100.64C632.675 100.64 624.135 111.246 624.135 128.644C624.135 146.043 632.973 156.648 645.665 156.648C658.358 156.648 667.344 146.043 667.344 128.644Z" fill="#231F20"/>
<path d="M691.174 63.3511C691.174 56.7068 696.03 52.1495 702.823 52.1495C709.617 52.1495 714.472 56.7281 714.472 63.3511C714.472 69.9741 709.617 74.5528 702.823 74.5528C696.03 74.5528 691.174 69.9741 691.174 63.3511ZM711.81 171.108H693.964V86.2016H711.81V171.108V171.108Z" fill="#231F20"/>
<path d="M720.158 128.644C720.158 101.662 736.513 84.4127 761.429 84.4127C781.341 84.4127 795.78 97.531 797.845 116.25L780.298 118.465C778.977 108.009 771.609 100.619 761.429 100.619C747.417 100.619 738.132 111.373 738.132 128.623C738.132 145.873 747.417 156.627 761.429 156.627C772.184 156.627 780.447 149.706 781.916 138.781L799.613 141.443C797.249 160.311 782.065 172.833 761.429 172.833C736.513 172.833 720.158 155.434 720.158 128.602V128.644Z" fill="#231F20"/>
<path d="M882.262 144.872C879.025 162.569 863.543 172.876 844.973 172.876C820.057 172.876 803.553 153.56 803.553 128.644C803.553 103.728 819.482 84.4127 843.355 84.4127C868.995 84.4127 884.626 104.899 880.197 131.583H821.377C822.25 146.022 830.961 156.648 844.952 156.648C855.28 156.648 862.947 151.047 865.14 141.762L882.241 144.85L882.262 144.872ZM822.719 117.017H862.67C861.925 107.284 854.407 100.512 844.249 100.512C834.091 100.512 825.828 106.411 822.719 117.017Z" fill="#231F20"/>
</g>
<defs>
<clipPath id="clip0_4_23">
<rect width="854.262" height="181.1" fill="white" transform="translate(28 28)"/>
</clipPath>
</defs>
</svg>
