<svg width="21" height="21" viewBox="0 0 21 21" fill="none" xmlns="http://www.w3.org/2000/svg">
<path d="M4.97455 0.000164032L16.6481 0.000164032L16.6481 13.4385L9.69896 20.9976L8.87406 20.3151C8.69075 20.1752 8.56993 20.0177 8.51161 19.8427C8.45328 19.6677 8.42412 19.4665 8.42412 19.239V18.9766L9.54898 13.4385L1.49998 13.4385C1.11669 13.4385 0.770901 13.2766 0.462605 12.9529C0.15431 12.6292 0.000164032 12.2661 0.000164032 11.8637V9.71146C0.000164032 9.51898 0.0209942 9.29589 0.0626564 9.04217C0.104319 8.78845 0.166811 8.56535 0.250134 8.37288L3.14977 1.33875C3.29975 0.971292 3.54556 0.656332 3.88718 0.393866C4.22881 0.131397 4.59126 0.000164032 4.97455 0.000164032ZM18.1479 13.4385L18.1479 0.000164032H20.9976L20.9976 13.4385H18.1479Z" fill="#CCCCCC"/>
</svg>
