<svg width="27" height="27" viewBox="0 0 27 27" fill="none" xmlns="http://www.w3.org/2000/svg">
<circle cx="13.5" cy="13.5" r="13.5" fill="#6666FF"/>
<path d="M8.85728 19.7679C8.60966 19.7679 8.393 19.6634 8.20728 19.4545C8.02157 19.2456 7.92871 19.0018 7.92871 18.7232V8.27682C7.92871 7.99825 8.02157 7.7545 8.20728 7.54557C8.393 7.33664 8.60966 7.23218 8.85728 7.23218H16.0073L19.0716 10.6795V18.7232C19.0716 19.0018 18.9787 19.2456 18.793 19.4545C18.6073 19.6634 18.3906 19.7679 18.143 19.7679H8.85728ZM8.85728 18.7232H18.143V11.2541H15.4966V8.27682H8.85728V18.7232ZM10.3894 16.7907H16.6109V15.746H10.3894V16.7907ZM10.3894 11.2541H13.5001V10.2094H10.3894V11.2541ZM10.3894 14.0224H16.6109V12.9777H10.3894V14.0224ZM8.85728 8.27682V11.2541V8.27682V18.7232V8.27682Z" fill="white"/>
</svg>
