<svg width="220" height="194" viewBox="0 0 220 194" fill="none" xmlns="http://www.w3.org/2000/svg">
<path d="M74.1077 16.1136H51.3784V88.1524H74.1077V16.1136Z" fill="#F5F5F5"/>
<path d="M74.1076 16.1136H62.7429V87.9549H74.1076V16.1136Z" fill="#EBEBEB"/>
<path d="M62 9.03723H53.9738V16.109H62V9.03723Z" fill="#F5F5F5"/>
<path d="M62.0001 9.03723H60.0864V16.109H62.0001V9.03723Z" fill="#EBEBEB"/>
<path d="M49.4835 16.1135V15.6997H74.7754V16.1135" fill="#E0E0E0"/>
<path d="M57.7872 19.1981H55.8641V23.2558H57.7872V19.1981Z" fill="#FAFAFA"/>
<path d="M62.7431 24.8449C62.7431 24.8873 60.1993 24.9249 57.0584 24.9249C53.9175 24.9249 51.3784 24.8873 51.3784 24.8449C51.3784 24.8026 53.9222 24.7697 57.0584 24.7697C60.1946 24.7697 62.7431 24.8026 62.7431 24.8449Z" fill="#E0E0E0"/>
<path d="M69.2505 19.1981H67.3274V23.2558H69.2505V19.1981Z" fill="#E0E0E0"/>
<path d="M74.2063 24.8449C74.2063 24.8873 71.6626 24.9249 68.5263 24.9249C65.3901 24.9249 62.8417 24.8873 62.8417 24.8449C62.8417 24.8026 65.3854 24.7697 68.5263 24.7697C71.6673 24.7697 74.2063 24.8026 74.2063 24.8449Z" fill="#E0E0E0"/>
<path d="M69.2505 27.2524H67.3274V31.3102H69.2505V27.2524Z" fill="#E0E0E0"/>
<path d="M74.2063 32.8996C74.2063 32.9419 71.6626 32.9795 68.5263 32.9795C65.3901 32.9795 62.8417 32.9419 62.8417 32.8996C62.8417 32.8573 65.3854 32.8243 68.5263 32.8243C71.6673 32.8243 74.2063 32.8573 74.2063 32.8996Z" fill="#E0E0E0"/>
<path d="M69.2505 35.5468H67.3274V39.6045H69.2505V35.5468Z" fill="#E0E0E0"/>
<path d="M74.2063 41.1985C74.2063 41.2408 71.6626 41.2737 68.5263 41.2737C65.3901 41.2737 62.8417 41.2408 62.8417 41.1985C62.8417 41.1561 65.3854 41.1232 68.5263 41.1232C71.6673 41.1232 74.2063 41.1561 74.2063 41.1985Z" fill="#E0E0E0"/>
<path d="M69.2505 43.8456H67.3274V47.9034H69.2505V43.8456Z" fill="#E0E0E0"/>
<path d="M74.2063 49.4975C74.2063 49.5399 71.6626 49.5728 68.5263 49.5728C65.3901 49.5728 62.8417 49.5399 62.8417 49.4975C62.8417 49.4552 65.3854 49.4176 68.5263 49.4176C71.6673 49.4176 74.2063 49.4552 74.2063 49.4975Z" fill="#E0E0E0"/>
<path d="M69.2505 51.9094H67.3274V55.9672H69.2505V51.9094Z" fill="#E0E0E0"/>
<path d="M74.2063 57.5612C74.2063 57.6035 71.6626 57.6411 68.5263 57.6411C65.3901 57.6411 62.8417 57.6035 62.8417 57.5612C62.8417 57.5189 65.3854 57.486 68.5263 57.486C71.6673 57.486 74.2063 57.5142 74.2063 57.5612Z" fill="#E0E0E0"/>
<path d="M69.2505 60.0015H67.3274V64.0593H69.2505V60.0015Z" fill="#E0E0E0"/>
<path d="M69.2505 68.2018H67.3274V72.2596H69.2505V68.2018Z" fill="#E0E0E0"/>
<path d="M74.2063 65.6487C74.2063 65.691 71.6626 65.7286 68.5263 65.7286C65.3901 65.7286 62.8417 65.691 62.8417 65.6487C62.8417 65.6063 65.3854 65.5734 68.5263 65.5734C71.6673 65.5734 74.2063 65.6063 74.2063 65.6487Z" fill="#E0E0E0"/>
<path d="M57.7872 27.3747H55.8641V31.4325H57.7872V27.3747Z" fill="#FAFAFA"/>
<path d="M62.7429 33.0218C62.7429 33.0641 60.1992 33.1018 57.0583 33.1018C53.9174 33.1018 51.3689 33.0641 51.3689 33.0218C51.3689 32.9795 53.9127 32.9466 57.0489 32.9466C60.1851 32.9466 62.7429 32.9795 62.7429 33.0218Z" fill="#E0E0E0"/>
<path d="M57.7872 35.5513H55.8641V39.6091H57.7872V35.5513Z" fill="#FAFAFA"/>
<path d="M62.7429 41.2032C62.7429 41.2455 60.1992 41.2784 57.0583 41.2784C53.9174 41.2784 51.3689 41.2455 51.3689 41.2032C51.3689 41.1609 53.9127 41.1232 57.0489 41.1232C60.1851 41.1232 62.7429 41.1609 62.7429 41.2032Z" fill="#E0E0E0"/>
<path d="M57.7872 43.7282H55.8641V47.786H57.7872V43.7282Z" fill="#FAFAFA"/>
<path d="M62.7429 49.3798C62.7429 49.4221 60.1992 49.455 57.0583 49.455C53.9174 49.455 51.3689 49.4221 51.3689 49.3798C51.3689 49.3375 53.9127 49.2999 57.0489 49.2999C60.1851 49.2999 62.7429 49.3375 62.7429 49.3798Z" fill="#E0E0E0"/>
<path d="M57.7872 51.9094H55.8641V55.9672H57.7872V51.9094Z" fill="#FAFAFA"/>
<path d="M62.7429 57.5612C62.7429 57.6035 60.1992 57.6411 57.0583 57.6411C53.9174 57.6411 51.3689 57.5988 51.3689 57.5612C51.3689 57.5236 53.9127 57.486 57.0489 57.486C60.1851 57.486 62.7429 57.5142 62.7429 57.5612Z" fill="#E0E0E0"/>
<path d="M57.7872 60.0861H55.8641V64.1439H57.7872V60.0861Z" fill="#FAFAFA"/>
<path d="M62.7431 65.7333C62.7431 65.7756 60.1993 65.8132 57.0584 65.8132C53.9175 65.8132 51.3784 65.7756 51.3784 65.7333C51.3784 65.6909 53.9222 65.658 57.0584 65.658C60.1946 65.658 62.7431 65.6909 62.7431 65.7333Z" fill="#E0E0E0"/>
<path d="M57.7872 68.263H55.8641V72.3208H57.7872V68.263Z" fill="#FAFAFA"/>
<path d="M157.351 31.3856H134.622V103.424H157.351V31.3856Z" fill="#F5F5F5"/>
<path d="M157.356 31.3856H145.991V103.227H157.356V31.3856Z" fill="#EBEBEB"/>
<path d="M145.248 24.3137H137.222V31.3855H145.248V24.3137Z" fill="#F5F5F5"/>
<path d="M145.248 24.3137H143.334V31.3855H145.248V24.3137Z" fill="#EBEBEB"/>
<path d="M132.732 31.3854V30.9716H158.019V31.3854" fill="#E0E0E0"/>
<path d="M141.035 34.47H139.112V38.5278H141.035V34.47Z" fill="#FAFAFA"/>
<path d="M145.991 40.1218C145.991 40.1641 143.447 40.197 140.306 40.197C137.165 40.197 134.622 40.1641 134.622 40.1218C134.622 40.0795 137.17 40.0419 140.306 40.0419C143.443 40.0419 145.991 40.0795 145.991 40.1218Z" fill="#E0E0E0"/>
<path d="M152.499 34.47H150.576V38.5278H152.499V34.47Z" fill="#E0E0E0"/>
<path d="M157.454 40.1218C157.454 40.1641 154.911 40.197 151.77 40.197C148.629 40.197 146.09 40.1641 146.09 40.1218C146.09 40.0795 148.634 40.0419 151.77 40.0419C154.906 40.0419 157.454 40.0795 157.454 40.1218Z" fill="#E0E0E0"/>
<path d="M152.499 42.5243H150.576V46.5821H152.499V42.5243Z" fill="#E0E0E0"/>
<path d="M157.454 48.1573C157.454 48.1996 154.911 48.2326 151.77 48.2326C148.629 48.2326 146.09 48.1996 146.09 48.1573C146.09 48.115 148.634 48.0774 151.77 48.0774C154.906 48.0774 157.454 48.1573 157.454 48.1573Z" fill="#E0E0E0"/>
<path d="M152.499 50.8235H150.576V54.8813H152.499V50.8235Z" fill="#E0E0E0"/>
<path d="M157.454 56.4751C157.454 56.5174 154.911 56.5503 151.77 56.5503C148.629 56.5503 146.09 56.5174 146.09 56.4751C146.09 56.4328 148.634 56.3951 151.77 56.3951C154.906 56.3951 157.454 56.4328 157.454 56.4751Z" fill="#E0E0E0"/>
<path d="M152.499 59.1224H150.576V63.1802H152.499V59.1224Z" fill="#E0E0E0"/>
<path d="M157.454 64.7696C157.454 64.8166 154.911 64.8495 151.77 64.8495C148.629 64.8495 146.09 64.8166 146.09 64.7696C146.09 64.7225 148.634 64.6943 151.77 64.6943C154.906 64.6943 157.454 64.7273 157.454 64.7696Z" fill="#E0E0E0"/>
<path d="M152.499 67.1816H150.576V71.2394H152.499V67.1816Z" fill="#E0E0E0"/>
<path d="M157.454 72.8332C157.454 72.8755 154.911 72.9085 151.77 72.9085C148.629 72.9085 146.09 72.8755 146.09 72.8332C146.09 72.7909 148.634 72.7533 151.77 72.7533C154.906 72.7533 157.454 72.7909 157.454 72.8332Z" fill="#E0E0E0"/>
<path d="M152.499 75.2737H150.576V79.3315H152.499V75.2737Z" fill="#E0E0E0"/>
<path d="M152.499 83.4738H150.576V87.5315H152.499V83.4738Z" fill="#E0E0E0"/>
<path d="M157.454 80.9255C157.454 80.9678 154.911 81.0007 151.77 81.0007C148.629 81.0007 146.09 80.9678 146.09 80.9255C146.09 80.8831 148.634 80.8502 151.77 80.8502C154.906 80.8502 157.454 80.8831 157.454 80.9255Z" fill="#E0E0E0"/>
<path d="M141.035 42.6469H139.112V46.7046H141.035V42.6469Z" fill="#FAFAFA"/>
<path d="M145.991 48.2983C145.991 48.3406 143.447 48.3735 140.306 48.3735C137.165 48.3735 134.622 48.3406 134.622 48.2983C134.622 48.256 137.17 48.2231 140.306 48.2231C143.443 48.2231 145.991 48.256 145.991 48.2983Z" fill="#E0E0E0"/>
<path d="M141.035 50.8281H139.112V54.8859H141.035V50.8281Z" fill="#FAFAFA"/>
<path d="M145.991 56.4753C145.991 56.5176 143.447 56.5552 140.306 56.5552C137.165 56.5552 134.622 56.5176 134.622 56.4753C134.622 56.4329 137.17 56.4 140.306 56.4C143.443 56.4 145.991 56.4329 145.991 56.4753Z" fill="#E0E0E0"/>
<path d="M141.035 59.0047H139.112V63.0625H141.035V59.0047Z" fill="#FAFAFA"/>
<path d="M145.991 64.6519C145.991 64.6989 143.447 64.7318 140.306 64.7318C137.165 64.7318 134.622 64.6989 134.622 64.6519C134.622 64.6049 137.17 64.5767 140.306 64.5767C143.443 64.5767 145.991 64.6143 145.991 64.6519Z" fill="#E0E0E0"/>
<path d="M141.035 67.1816H139.112V71.2394H141.035V67.1816Z" fill="#FAFAFA"/>
<path d="M145.991 72.8332C145.991 72.8755 143.447 72.9085 140.306 72.9085C137.165 72.9085 134.622 72.8755 134.622 72.8332C134.622 72.7909 137.17 72.7533 140.306 72.7533C143.443 72.7533 145.991 72.7909 145.991 72.8332Z" fill="#E0E0E0"/>
<path d="M141.035 75.3628H139.112V79.4206H141.035V75.3628Z" fill="#FAFAFA"/>
<path d="M145.991 81.01C145.991 81.0523 143.447 81.0852 140.306 81.0852C137.165 81.0852 134.622 81.0523 134.622 81.01C134.622 80.9677 137.17 80.9348 140.306 80.9348C143.443 80.9348 145.991 80.9677 145.991 81.01Z" fill="#E0E0E0"/>
<path d="M141.035 83.5394H139.112V87.5972H141.035V83.5394Z" fill="#FAFAFA"/>
<path d="M185.737 59.3387H148.93V107.882H185.737V59.3387Z" fill="#EBEBEB"/>
<path d="M185.732 59.3387H168.476V107.882H185.732V59.3387Z" fill="#E0E0E0"/>
<path d="M159.956 65.912H156.646V73.9523H159.956V65.912Z" fill="#F5F5F5"/>
<path d="M159.956 97.3774H156.646V105.418H159.956V97.3774Z" fill="#F5F5F5"/>
<path d="M168.476 77.1073C168.476 77.1967 164.103 77.2672 158.705 77.2672C153.307 77.2672 148.93 77.1967 148.93 77.1073C148.93 77.018 153.303 76.9427 158.705 76.9427C164.108 76.9427 168.476 77.0133 168.476 77.1073Z" fill="#F5F5F5"/>
<path d="M159.956 81.7621H156.646V89.8025H159.956V81.7621Z" fill="#F5F5F5"/>
<path d="M168.476 92.9577C168.476 93.0471 164.103 93.1223 158.705 93.1223C153.307 93.1223 148.93 93.0471 148.93 92.9577C148.93 92.8684 153.303 92.7932 158.705 92.7932C164.108 92.7932 168.476 92.8684 168.476 92.9577Z" fill="#F5F5F5"/>
<path d="M175.454 65.912H172.143V73.9523H175.454V65.912Z" fill="#F5F5F5"/>
<path d="M182.634 65.912H179.323V73.9523H182.634V65.912Z" fill="#F5F5F5"/>
<path d="M175.454 81.1653H172.143V89.2057H175.454V81.1653Z" fill="#F5F5F5"/>
<path d="M182.634 81.1653H179.323V89.2057H182.634V81.1653Z" fill="#F5F5F5"/>
<path d="M175.454 96.423H172.143V104.463H175.454V96.423Z" fill="#F5F5F5"/>
<path d="M182.634 96.423H179.323V104.463H182.634V96.423Z" fill="#F5F5F5"/>
<path d="M188.502 57.6459H146.16V59.3951H188.502V57.6459Z" fill="#E0E0E0"/>
<path d="M185.991 59.5644C185.991 59.6537 177.767 59.7243 167.62 59.7243C157.473 59.7243 149.245 59.6537 149.245 59.5644C149.245 59.4751 157.473 59.3998 167.62 59.3998C177.767 59.3998 185.991 59.4704 185.991 59.5644Z" fill="#EBEBEB"/>
<path d="M65.6769 108.85H32.2272L32.0814 55.9863H65.5312L65.6769 108.85Z" fill="#EBEBEB"/>
<path d="M65.5313 55.9863H48.8064V108.85H65.5313V55.9863Z" fill="#E0E0E0"/>
<path d="M47.7109 45.5807H35.8995V55.9861H47.7109V45.5807Z" fill="#EBEBEB"/>
<path d="M47.7108 45.5807H44.8943V55.9861H47.7108V45.5807Z" fill="#E0E0E0"/>
<path d="M66.5092 55.3795H29.2932V55.9861H66.5092V55.3795Z" fill="#E0E0E0"/>
<path d="M41.5136 60.5283H38.683V66.4998H41.5136V60.5283Z" fill="white"/>
<path d="M48.8063 68.8461C48.8063 68.9072 45.0447 68.9589 40.4415 68.9589C35.8383 68.9589 32.0908 68.9025 32.0908 68.8461C32.0908 68.7896 35.8524 68.7332 40.4509 68.7332C45.0494 68.7332 48.8063 68.7755 48.8063 68.8461Z" fill="#E0E0E0"/>
<path d="M58.3843 60.5283H55.5537V66.4998H58.3843V60.5283Z" fill="#F5F5F5"/>
<path d="M65.677 68.8461C65.677 68.9072 61.9155 68.9589 57.3122 68.9589C52.709 68.9589 48.9521 68.9072 48.9521 68.8461C48.9521 68.7849 52.7137 68.7332 57.3122 68.7332C61.9107 68.7332 65.677 68.7755 65.677 68.8461Z" fill="#EBEBEB"/>
<path d="M58.3843 72.3818H55.5537V78.3533H58.3843V72.3818Z" fill="#F5F5F5"/>
<path d="M65.677 80.6949C65.677 80.756 61.9155 80.8077 57.3122 80.8077C52.709 80.8077 48.9521 80.756 48.9521 80.6949C48.9521 80.6338 52.7137 80.5773 57.3122 80.5773C61.9107 80.5773 65.677 80.6291 65.677 80.6949Z" fill="#EBEBEB"/>
<path d="M58.3843 84.5931H55.5537V90.5646H58.3843V84.5931Z" fill="#F5F5F5"/>
<path d="M65.677 92.9059C65.677 92.967 61.9155 93.0187 57.3122 93.0187C52.709 93.0187 48.9521 92.967 48.9521 92.9059C48.9521 92.8448 52.7137 92.7883 57.3122 92.7883C61.9107 92.7883 65.677 92.8259 65.677 92.9059Z" fill="#EBEBEB"/>
<path d="M58.3843 96.7992H55.5537V102.771H58.3843V96.7992Z" fill="#F5F5F5"/>
<path d="M65.677 105.117C65.677 105.178 61.9155 105.23 57.3122 105.23C52.709 105.23 48.9521 105.178 48.9521 105.117C48.9521 105.056 52.7137 104.999 57.3122 104.999C61.9107 104.999 65.677 105.051 65.677 105.117Z" fill="#EBEBEB"/>
<path d="M41.5136 72.5604H38.683V78.5319H41.5136V72.5604Z" fill="white"/>
<path d="M48.8063 80.8736C48.8063 80.9394 45.0447 80.9864 40.4415 80.9864C35.8383 80.9864 32.0908 80.9394 32.0908 80.8736C32.0908 80.8078 35.8524 80.7607 40.4509 80.7607C45.0494 80.7607 48.8063 80.8125 48.8063 80.8736Z" fill="#E0E0E0"/>
<path d="M41.5136 84.5931H38.683V90.5646H41.5136V84.5931Z" fill="white"/>
<path d="M48.8063 92.906C48.8063 92.9718 45.0447 93.0236 40.4415 93.0236C35.8383 93.0236 32.0908 92.9718 32.0908 92.906C32.0908 92.8402 35.8524 92.7932 40.4509 92.7932C45.0494 92.7932 48.8063 92.8261 48.8063 92.906Z" fill="#E0E0E0"/>
<path d="M41.5136 96.6301H38.683V102.602H41.5136V96.6301Z" fill="white"/>
<path d="M48.8063 104.943C48.8063 105.004 45.0447 105.056 40.4415 105.056C35.8383 105.056 32.0908 105.004 32.0908 104.943C32.0908 104.882 35.8524 104.83 40.4509 104.83C45.0494 104.83 48.8063 104.877 48.8063 104.943Z" fill="#E0E0E0"/>
<path d="M198.145 45.3033C198.324 44.0149 196.509 42.9523 195.145 42.8489C194.494 42.8749 193.841 42.8197 193.203 42.6843C191.873 42.2141 191.323 40.4932 190.039 39.9477C189.066 39.534 187.947 39.9007 187.002 40.3756C186.057 40.8505 185.121 41.4477 184.072 41.5135C183.132 41.5746 182.159 41.2314 181.359 41.6828C180.762 42.0166 180.447 42.7031 179.897 43.0933C179.323 43.4448 178.661 43.6243 177.988 43.6106C177.317 43.5918 176.648 43.7003 176.018 43.9303C175.704 44.0512 175.439 44.2707 175.261 44.5555C175.083 44.8404 175.002 45.1754 175.03 45.5102L198.145 45.3033Z" fill="#F5F5F5"/>
<path d="M141.557 8.66095C141.835 6.65321 138.995 4.99812 136.855 4.82415C135.84 4.74421 134.782 4.89938 133.823 4.56554C131.735 3.83673 130.898 1.13781 128.862 0.27735C127.339 -0.362117 125.571 0.206821 124.108 0.94973C122.646 1.69264 121.174 2.62833 119.524 2.73648C118.113 2.82581 116.529 2.29449 115.292 2.99508C114.352 3.517 113.882 4.59845 113.007 5.23322C112.132 5.86798 111.06 5.98553 110.017 6.04195C108.973 6.09838 107.887 6.11248 106.932 6.54506C105.978 6.97764 105.192 7.99327 105.39 9.0183L141.557 8.66095Z" fill="#EBEBEB"/>
<path d="M44.8803 36.4964C45.1012 34.893 42.8396 33.5718 41.1187 33.4354C40.3099 33.3696 39.4683 33.4965 38.6972 33.2285C37.0327 32.6455 36.3462 30.4967 34.7475 29.8102C33.5297 29.2977 32.1332 29.7538 30.9578 30.3462C29.7823 30.9387 28.6068 31.6863 27.2996 31.7568C26.1571 31.8273 24.9157 31.4042 23.9142 31.9637C23.1666 32.3775 22.7763 33.2379 22.0899 33.7457C21.3754 34.1891 20.5465 34.413 19.706 34.3899C18.8683 34.3714 18.0345 34.5085 17.2468 34.7943C16.4898 35.1422 15.8598 35.9463 16.0196 36.7644L44.8803 36.4964Z" fill="#F5F5F5"/>
<g opacity="0.3">
<path d="M28.2493 71.8601C26.4226 71.9042 24.6424 72.4458 23.1007 73.4266C21.5589 74.4073 20.3139 75.7902 19.4998 77.4261C18.6857 79.062 18.3334 80.889 18.4807 82.7104C18.628 84.5317 19.2695 86.2784 20.3359 87.7622L20.43 87.8985L27.544 97.5705C27.6892 97.7675 27.8796 97.9267 28.0992 98.0348C28.3188 98.1429 28.5611 98.1967 28.8058 98.1916C29.0505 98.1866 29.2904 98.1228 29.5053 98.0057C29.7202 97.8886 29.9038 97.7216 30.0408 97.5187L36.4683 87.9596C37.6814 86.1071 38.5184 84.1652 38.5184 81.88C38.5156 80.5439 38.2462 79.2217 37.7261 77.991C37.2059 76.7603 36.4453 75.6457 35.489 74.7126C34.5327 73.7794 33.3998 73.0465 32.1566 72.5567C30.9135 72.0669 29.5851 71.8301 28.2493 71.8601ZM28.4891 89.2057C26.9956 89.2057 25.5356 88.7628 24.2938 87.933C23.052 87.1033 22.0841 85.9239 21.5126 84.5441C20.941 83.1643 20.7915 81.6459 21.0829 80.1811C21.3742 78.7163 22.0934 77.3708 23.1495 76.3147C24.2056 75.2586 25.5511 74.5394 27.0159 74.2481C28.4807 73.9567 29.9991 74.1062 31.3789 74.6778C32.7587 75.2493 33.9381 76.2172 34.7678 77.459C35.5976 78.7008 36.0405 80.1608 36.0405 81.6543C36.0405 83.6571 35.2449 85.5778 33.8287 86.9939C32.4126 88.4101 30.4919 89.2057 28.4891 89.2057Z" fill="black"/>
</g>
<path d="M27.657 71.8601C25.0802 71.9288 22.6278 72.9825 20.8042 74.8043C18.9807 76.6261 17.9246 79.0775 17.8534 81.6542C17.7912 83.8431 18.4523 85.9915 19.7342 87.7668L19.8329 87.9031L26.9423 97.5751C27.0866 97.7762 27.2775 97.9392 27.4988 98.0501C27.72 98.1611 27.9649 98.2166 28.2124 98.212C28.4599 98.2074 28.7025 98.1427 28.9194 98.0236C29.1364 97.9044 29.3211 97.7344 29.4578 97.528L35.8854 87.969C37.1032 86.1164 37.9354 84.1745 37.9354 81.8893C37.9339 80.5516 37.6652 79.2276 37.145 77.9952C36.6248 76.7627 35.8636 75.6466 34.9061 74.7123C33.9487 73.7781 32.8142 73.0445 31.5694 72.5547C30.3245 72.0649 28.9943 71.8287 27.657 71.8601ZM27.8921 87.8467C26.7614 87.8458 25.6565 87.5097 24.7168 86.8808C23.7772 86.252 23.0451 85.3587 22.6131 84.3139C22.181 83.2691 22.0685 82.1196 22.2896 81.0108C22.5108 79.902 23.0557 78.8837 23.8555 78.0845C24.6553 77.2854 25.6741 76.7413 26.783 76.5211C27.892 76.3008 29.0414 76.4143 30.0859 76.8472C31.1304 77.2801 32.023 78.0129 32.6511 78.9531C33.2791 79.8932 33.6143 80.9985 33.6143 82.1291C33.6137 82.88 33.4652 83.6233 33.1773 84.3168C32.8894 85.0102 32.4677 85.6402 31.9364 86.1707C31.405 86.7012 30.7744 87.1218 30.0804 87.4086C29.3865 87.6954 28.6429 87.8426 27.8921 87.842V87.8467Z" fill="url(#paint0_linear_907_4797)"/>
<g opacity="0.3">
<path d="M185.779 62.3386C184.385 62.3692 183.026 62.78 181.849 63.5265C180.671 64.273 179.72 65.3269 179.098 66.5745C178.475 67.8221 178.205 69.216 178.317 70.6057C178.429 71.9955 178.918 73.3282 179.732 74.4602L179.808 74.5637L185.229 81.9316C185.34 82.0781 185.483 82.1963 185.649 82.2764C185.814 82.3566 185.995 82.3965 186.179 82.3928C186.362 82.3892 186.543 82.342 186.704 82.2553C186.866 82.1686 187.005 82.0448 187.11 81.894L192.009 74.6107C192.984 73.259 193.53 71.6452 193.575 69.9792C193.573 68.9634 193.368 67.9581 192.974 67.022C192.579 66.0859 192.002 65.2376 191.277 64.5266C190.551 63.8155 189.692 63.2559 188.748 62.8802C187.804 62.5046 186.795 62.3205 185.779 62.3386ZM185.962 75.5605C184.825 75.5605 183.713 75.2234 182.767 74.5918C181.821 73.9603 181.083 73.0625 180.647 72.012C180.211 70.9615 180.096 69.8053 180.317 68.6894C180.537 67.5735 181.083 66.548 181.886 65.7424C182.689 64.9367 183.713 64.3871 184.828 64.163C185.943 63.9388 187.1 64.0501 188.152 64.4828C189.204 64.9155 190.104 65.6502 190.739 66.5942C191.373 67.5381 191.714 68.649 191.718 69.7865C191.72 70.5438 191.573 71.2942 191.285 71.9947C190.997 72.6951 190.573 73.3318 190.039 73.8682C189.504 74.4046 188.869 74.8302 188.169 75.1206C187.47 75.411 186.72 75.5605 185.962 75.5605Z" fill="black"/>
</g>
<path d="M185.328 62.3386C183.935 62.3717 182.578 62.7843 181.402 63.5318C180.227 64.2793 179.278 65.3335 178.657 66.5806C178.036 67.8278 177.768 69.2207 177.88 70.6092C177.993 71.9977 178.482 73.3292 179.295 74.4602L179.366 74.5637L184.782 81.9316C184.893 82.0819 185.038 82.2034 185.205 82.2859C185.373 82.3684 185.558 82.4096 185.744 82.4059C185.931 82.4022 186.114 82.3538 186.278 82.2647C186.442 82.1756 186.582 82.0485 186.687 81.894L191.586 74.6107C192.559 73.2586 193.103 71.6448 193.147 69.9792C193.145 68.9612 192.941 67.9537 192.545 67.0157C192.149 66.0777 191.57 65.2281 190.842 64.5166C190.114 63.8051 189.251 63.246 188.304 62.872C187.358 62.498 186.346 62.3167 185.328 62.3386ZM185.506 74.5213C184.644 74.5213 183.802 74.2657 183.085 73.7868C182.368 73.3078 181.809 72.6271 181.479 71.8306C181.15 71.0342 181.063 70.1578 181.231 69.3123C181.4 68.4668 181.815 67.6901 182.424 67.0805C183.034 66.471 183.811 66.0558 184.656 65.8877C185.502 65.7195 186.378 65.8058 187.174 66.1357C187.971 66.4656 188.652 67.0243 189.131 67.741C189.609 68.4578 189.865 69.3005 189.865 70.1626C189.866 70.7352 189.753 71.3023 189.535 71.8314C189.316 72.3605 188.995 72.8412 188.59 73.2461C188.185 73.6509 187.704 73.972 187.175 74.1908C186.646 74.4096 186.079 74.522 185.506 74.5213Z" fill="url(#paint1_linear_907_4797)"/>
<path d="M33.7412 107.961L0.15979 191.355L63.1237 181.002L109.302 191.355L156.594 181.002L219.84 193.067L185.981 107.961L148.201 98.4446L110.002 105.723L70.9619 98.4446L33.7412 107.961Z" fill="white"/>
<path d="M33.7413 107.961L34.3572 107.797L36.1957 107.327L43.3991 105.469L70.9479 98.4165H70.9714L109.998 105.672H109.965L148.163 98.3836H148.229L186.005 107.872H186.061V107.924L219.915 193.029L220 193.236L219.779 193.194L187.246 186.987L156.533 181.129H156.585L109.288 191.473H109.259L63.0862 181.129H63.1238L0.155165 191.473L0 191.497L0.0611251 191.351C10.4478 165.603 18.869 144.754 24.6712 130.343L31.3762 113.759L33.1206 109.452C33.5156 108.483 33.7225 107.99 33.7225 107.99C33.7225 107.99 33.5297 108.493 33.1394 109.471L31.4091 113.797L24.7652 130.38L0.244502 191.388L0.145761 191.266L63.1238 180.894H63.1661L109.339 191.238H109.292L156.585 180.894H156.608L187.321 186.752L219.854 192.959L219.718 193.123L185.864 108.018L185.939 108.084L148.163 98.5576H148.229L110.016 105.803H109.984L70.9573 98.5058L43.4367 105.521L36.2192 107.35L34.3713 107.82L33.7413 107.961Z" fill="#263238"/>
<path d="M35.702 110.2L6.03735 187.157L62.8464 177.922L110.002 188.835L156.594 177.644L214.522 188.835L184.021 110.2L148.761 101.524L110.002 108.803L70.4025 101.524L35.702 110.2Z" fill="white"/>
<path d="M9.33337 178.608L54.4863 168.147L52.8218 158.423L56.574 156.058L50.7341 133.343L32.6786 118.038L9.33337 178.608Z" fill="#CCCCCC"/>
<path d="M6.03735 187.156L8.23787 181.448L83.9488 163.858L88.0583 175.176L86.7277 177.461L72.509 180.16L62.8464 177.922L6.03735 187.156Z" fill="#EBEBEB"/>
<path d="M88.0583 162.763L91.0629 173.958L99.785 177.748L112.189 172.237L138.214 164.657L130.094 152.423L88.0583 162.763Z" fill="#EBEBEB"/>
<path d="M57.82 166.91L71.8882 163.858L69.0812 154.718L58.8309 157.191L56.1038 159.119L57.82 166.91Z" fill="#E0E0E0"/>
<path d="M54.9471 136.615L60.0535 153.378L68.0374 151.619L66.5986 145.182L84.1604 141.247L54.9471 136.615Z" fill="#CCCCCC"/>
<path d="M34.0093 114.596L56.1038 132.332L85.4346 137.894L116.721 130.117L102.442 107.411L70.4024 101.524L35.702 110.2L34.0093 114.596Z" fill="#EBEBEB"/>
<path d="M106.716 108.197L152.583 178.608L156.594 177.645L112.198 108.389L110.002 108.803L106.716 108.197Z" fill="#EBEBEB"/>
<path d="M69.5514 146.955L75.363 163.858L126.962 150.674L117.413 134.419L69.5514 146.955Z" fill="#E0E0E0"/>
<path d="M98.2568 186.117L98.7599 185.37L102.15 180.334L110.28 177.748L115.875 173.535L140.123 166.91L147.656 179.788L110.002 188.835" fill="#E0E0E0"/>
<path d="M141.214 102.94L153.364 116.458L184.021 110.2L148.761 101.524L141.214 102.94Z" fill="#E0E0E0"/>
<path d="M190.472 126.83L167.959 133.089L156.594 118.038L184.787 112.184L190.472 126.83Z" fill="#E0E0E0"/>
<path d="M114.606 107.933L138.214 141.844L165.457 134.024L138.214 103.504L114.606 107.933Z" fill="#EBEBEB"/>
<path d="M180.602 182.281L207.841 171.612L214.522 188.835L180.602 182.281Z" fill="#E0E0E0"/>
<path d="M152.113 139.817L166.915 135.957L182.549 154.718L167.333 159.768L152.113 139.817Z" fill="#CCCCCC"/>
<path d="M170.249 134.419L186.719 153.302L199.123 149.137L190.965 128.109L170.249 134.419Z" fill="#E0E0E0"/>
<path d="M182.549 177.875L170.249 160.811L199.979 151.337L206.016 166.91L202.142 170.808L182.549 177.875Z" fill="#CCCCCC"/>
<path d="M139.658 144.336L162.255 178.608L176.173 181.425L178.797 180.226L150.162 141.171L139.658 144.336Z" fill="#E0E0E0"/>
<path d="M47.0478 169.872L41.4195 143.4L21.5679 146.87L9.33337 178.608L47.0478 169.872Z" fill="#E0E0E0"/>
<path d="M65.3008 102.799V114.92L69.5514 115.456L81.4191 129.28L91.6224 128.109L96.4795 135.148L85.4346 137.894L56.1038 132.332L34.0093 114.596L35.702 110.2L65.3008 102.799Z" fill="#CCCCCC"/>
<path d="M127.348 105.648L144.016 129.971L158.376 126.092L138.214 103.504L127.348 105.648Z" fill="#E0E0E0"/>
<path d="M176.281 130.775L170.249 121.348L186.555 116.74L190.472 126.83L176.281 130.775Z" fill="#EBEBEB"/>
<path d="M152.113 163.228L160.008 160.496L175.317 181.251L162.255 178.608L152.113 163.228Z" fill="#EBEBEB"/>
<path d="M79.3033 181.73L86.6431 180.837L89.0881 177.259L98.2569 180.141L95.8589 185.563L79.3033 181.73Z" fill="#CCCCCC"/>
<path d="M35.7019 110.223L37.9871 109.635L44.7015 107.943L70.3883 101.487H70.4118L110.016 108.742H109.983L148.742 101.449H148.784L184.049 110.115H184.1V110.171C193.462 134.203 203.773 160.797 214.635 188.793L214.715 189L214.499 188.957L185.436 183.343L156.57 177.762H156.622L110.03 188.953H109.974L62.8228 178.03H62.8651L6.05134 187.246L5.90088 187.269L5.9526 187.124C15.1355 163.355 22.5693 144.115 27.7039 130.818C30.2758 124.179 32.2695 119.021 33.6236 115.522L35.1706 111.549C35.5185 110.651 35.7019 110.2 35.7019 110.2C35.7019 110.2 35.5279 110.67 35.1847 111.568L33.6612 115.555L27.7791 130.884L6.12187 187.19L6.02313 187.072L62.8275 177.819H62.8698L110.026 188.746H109.974L156.566 177.55H156.594L185.483 183.104L214.527 188.718L214.39 188.882C203.534 160.882 193.232 134.307 183.898 110.242L183.973 110.308L148.709 101.623H148.751L109.988 108.883H109.955L70.3647 101.586L44.7391 107.971L38.0106 109.64L35.7019 110.223Z" fill="#263238"/>
<g opacity="0.2">
<path d="M109.302 191.355L110.002 105.723L70.9619 98.4446L63.1238 181.002L109.302 191.355Z" fill="black"/>
</g>
<g opacity="0.2">
<path d="M148.201 98.4446L156.594 181.002L219.84 193.067L185.981 107.961L148.201 98.4446Z" fill="#999999"/>
</g>
<path d="M110.303 24.6896C83.0319 25.3244 60.7869 47.5552 60.138 74.8266C59.851 86.0214 63.2455 97.0011 69.8006 106.081L70.3037 106.762L70.3742 106.861L106.767 156.363C107.51 157.373 108.484 158.189 109.609 158.743C110.733 159.297 111.974 159.573 113.227 159.547C114.48 159.52 115.708 159.193 116.808 158.592C117.908 157.992 118.848 157.135 119.547 156.095L152.461 107.195C158.686 97.6969 162.956 87.7758 162.956 76.0773C162.956 69.2218 161.585 62.4355 158.923 56.1178C156.261 49.8001 152.362 44.0788 147.456 39.2905C142.55 34.5022 136.735 30.7436 130.355 28.2361C123.974 25.7286 117.157 24.5228 110.303 24.6896ZM111.526 113.458C103.882 113.459 96.4101 111.193 90.0542 106.947C83.6984 102.701 78.7444 96.6661 75.8187 89.6047C72.893 82.5433 72.127 74.7728 73.6176 67.276C75.1082 59.7792 78.7885 52.8929 84.193 47.4877C89.5974 42.0826 96.4834 38.4015 103.98 36.91C111.477 35.4185 119.247 36.1835 126.309 39.1083C133.371 42.0332 139.407 46.9865 143.653 53.3418C147.9 59.6971 150.166 67.169 150.166 74.8125C150.166 85.0611 146.096 94.89 138.849 102.137C131.603 109.385 121.774 113.457 111.526 113.458Z" fill="#F2F2F2"/>
<path d="M107.256 24.6896C79.9851 25.3244 57.7402 47.5552 57.0913 74.8266C56.8042 86.0214 60.1987 97.0011 66.7538 106.081L67.2569 106.762L67.3275 106.861L103.721 156.363C104.463 157.373 105.438 158.189 106.562 158.743C107.686 159.297 108.927 159.573 110.18 159.547C111.433 159.52 112.662 159.193 113.762 158.592C114.862 157.992 115.801 157.135 116.501 156.095L149.414 107.195C155.64 97.6969 159.909 87.7758 159.909 76.0773C159.909 69.2218 158.538 62.4355 155.876 56.1178C153.214 49.8001 149.315 44.0788 144.409 39.2905C139.503 34.5022 133.689 30.7436 127.308 28.2361C120.928 25.7286 114.11 24.5228 107.256 24.6896ZM108.479 113.458C100.835 113.459 93.3633 111.193 87.0075 106.947C80.6517 102.701 75.6976 96.6661 72.7719 89.6047C69.8462 82.5433 69.0803 74.7728 70.5709 67.276C72.0615 59.7792 75.7417 52.8929 81.1462 47.4877C86.5507 42.0826 93.4366 38.4015 100.933 36.91C108.43 35.4185 116.2 36.1835 123.262 39.1083C130.324 42.0332 136.36 46.9865 140.606 53.3418C144.853 59.6971 147.12 67.169 147.12 74.8125C147.12 85.0611 143.049 94.89 135.802 102.137C128.556 109.385 118.728 113.457 108.479 113.458Z" fill="url(#paint2_linear_907_4797)"/>
<g opacity="0.3">
<path d="M130.71 103.96C130.089 104.661 89.2245 115.452 88.6085 116.152C96.442 118.541 106.006 120.619 114.197 120.144C118.809 119.881 123.601 119.058 127.268 116.218C130.936 113.378 132.929 108.013 130.71 103.96Z" fill="black"/>
</g>
<path d="M91.6836 25.9731C90.5044 27.2268 89.6458 28.7469 89.1808 30.4039C88.7158 32.0609 88.6582 33.8058 89.0129 35.4899C89.3702 37.1168 90.0849 38.9317 89.1915 40.3376C88.2982 41.7435 86.2199 41.9833 85.3877 43.408C84.4003 45.0772 85.7168 47.1696 85.5522 49.1162C85.4458 50.0238 85.0198 50.8639 84.3503 51.486C83.6809 52.108 82.8118 52.4714 81.8988 52.511C84.255 53.9373 86.9592 54.6858 89.7135 54.6739C90.2777 53.6959 90.8404 52.7179 91.4015 51.7399C90.7526 52.779 91.1664 54.2225 92.055 55.0642C92.9437 55.9058 94.185 56.2585 95.3934 56.4748C98.2923 56.9405 101.26 56.7291 104.063 55.8571C106.867 54.9851 109.431 53.4762 111.554 51.4484" fill="#263238"/>
<path d="M124.654 36.1765C124.066 34.9728 123.21 33.9008 122.773 32.6406C121.786 29.937 122.702 26.6033 120.996 24.2852C119.782 22.6302 117.61 22.0424 115.584 21.718C113.557 21.3935 111.408 21.1773 109.763 19.9594C108.554 19.0614 107.75 17.7072 106.546 16.8091C104.83 15.5255 102.531 15.3327 100.396 15.4973C98.2616 15.6619 95.9671 16.1838 94.1568 17.4298C92.3466 18.6758 90.9642 20.6929 90.9172 22.8935C90.8937 23.9655 91.1758 25.047 90.9877 26.1002C90.7808 27.2616 90.0473 28.249 89.6382 29.3587C89.2532 30.5498 89.2753 31.8352 89.7009 33.0124C90.1265 34.1896 90.9315 35.1919 91.9892 35.8615L109.622 53.0565C112.913 53.7994 120.323 51.3027 122.42 48.6461C124.517 45.9895 126.13 39.2234 124.654 36.1765Z" fill="#263238"/>
<path d="M92.0079 33.3556C92.0079 28.8934 94.6175 23.2511 99.0609 23.4438L113.12 26.0722C113.773 26.1011 114.393 26.374 114.855 26.8371C115.317 27.3003 115.589 27.9199 115.616 28.5737L116.228 62.0328H116.322C116.322 62.0328 113.783 71.6436 104.454 69.3632C102.601 68.893 101.633 66.984 101.163 64.9668H101.073C101.05 64.7223 101.036 64.4966 101.017 64.2662C100.738 62.7579 100.62 61.2244 100.664 59.6912C100.462 56.997 100.396 55.8921 100.396 55.9297C100.396 55.9673 94.6551 55.3466 93.0142 48.0069C92.2007 44.3958 92.0079 38.3161 92.0079 33.3556Z" fill="#FFBE9D"/>
<path d="M104.887 37.9304C104.891 38.0539 104.921 38.1753 104.972 38.2875C105.024 38.3998 105.098 38.5007 105.188 38.5846C105.279 38.6684 105.386 38.7336 105.502 38.7762C105.618 38.8189 105.741 38.8382 105.865 38.8332C105.987 38.837 106.109 38.816 106.223 38.7716C106.338 38.7272 106.442 38.6602 106.53 38.5746C106.617 38.489 106.687 38.3866 106.734 38.2735C106.782 38.1604 106.806 38.0389 106.805 37.9163C106.8 37.7928 106.771 37.6714 106.719 37.5592C106.667 37.4469 106.594 37.346 106.503 37.2621C106.412 37.1783 106.306 37.1132 106.19 37.0705C106.074 37.0279 105.951 37.0085 105.827 37.0135C105.704 37.0097 105.582 37.0307 105.468 37.0751C105.354 37.1196 105.25 37.1866 105.162 37.2722C105.074 37.3577 105.005 37.4601 104.957 37.5732C104.91 37.6863 104.886 37.8078 104.887 37.9304Z" fill="#263238"/>
<path d="M95.1771 38.6732C95.1819 38.7967 95.2111 38.9181 95.2629 39.0303C95.3147 39.1426 95.3881 39.2435 95.4789 39.3273C95.5698 39.4112 95.6762 39.4763 95.7923 39.519C95.9083 39.5616 96.0316 39.581 96.1551 39.576C96.2797 39.5799 96.4037 39.5582 96.5196 39.5123C96.6354 39.4665 96.7407 39.3973 96.8288 39.3092C96.9169 39.2211 96.986 39.1159 97.0319 39C97.0778 38.8842 97.0994 38.7601 97.0955 38.6356C97.0845 38.3869 96.9754 38.1528 96.7921 37.9844C96.6087 37.8161 96.3662 37.7273 96.1175 37.7375C95.9932 37.7329 95.8692 37.7539 95.7534 37.7993C95.6375 37.8446 95.5322 37.9133 95.444 38.0011C95.3558 38.0888 95.2866 38.1938 95.2407 38.3094C95.1948 38.425 95.1731 38.5488 95.1771 38.6732Z" fill="#263238"/>
<path d="M93.1366 36.5715C93.2635 36.7267 94.077 36.0543 95.1819 36.059C96.2869 36.0637 97.105 36.7173 97.232 36.5574C97.2931 36.4869 97.1662 36.2048 96.8135 35.8991C96.3525 35.5155 95.7723 35.3044 95.1725 35.302C94.5728 35.3129 93.9963 35.5361 93.5457 35.9321C93.2165 36.2142 93.0755 36.501 93.1366 36.5715Z" fill="#263238"/>
<path d="M103.471 36.3177C103.622 36.4587 104.412 35.7111 105.583 35.5983C106.753 35.4854 107.694 36.0309 107.807 35.8663C107.863 35.7911 107.703 35.523 107.294 35.2644C106.754 34.9379 106.121 34.7975 105.493 34.8648C104.869 34.9279 104.283 35.1976 103.829 35.6312C103.495 35.965 103.396 36.2566 103.471 36.3177Z" fill="#263238"/>
<path d="M100.349 43.7984C99.798 43.666 99.2328 43.6013 98.6659 43.6057C98.4073 43.6057 98.1534 43.5586 98.1017 43.38C98.0603 43.1119 98.103 42.8375 98.2239 42.5947C98.4308 41.9506 98.6471 41.2688 98.8728 40.5588C99.7709 37.6577 100.401 35.2832 100.283 35.2456C100.166 35.208 99.343 37.5354 98.4496 40.4177C98.2333 41.1324 98.0312 41.8283 97.8337 42.4678C97.6884 42.7933 97.6634 43.1599 97.7631 43.5022C97.8088 43.5934 97.8751 43.6727 97.9567 43.7339C98.0383 43.7951 98.133 43.8365 98.2333 43.8549C98.3879 43.887 98.546 43.8981 98.7035 43.8878C99.2537 43.9278 99.8067 43.8978 100.349 43.7984Z" fill="#263238"/>
<path d="M100.401 55.9485C103.888 55.78 107.26 54.6489 110.143 52.6806C110.143 52.6806 108.056 57.9233 100.589 57.6929L100.401 55.9485Z" fill="#EB996E"/>
<path d="M100.937 46.2387C101.116 45.9815 101.358 45.774 101.639 45.6358C101.92 45.4977 102.232 45.4333 102.545 45.4488C102.772 45.4565 102.995 45.5091 103.202 45.6035C103.408 45.6979 103.594 45.8323 103.749 45.9989C103.896 46.1616 103.99 46.3656 104.018 46.5834C104.046 46.8012 104.006 47.0223 103.904 47.2167C103.75 47.4103 103.543 47.5539 103.308 47.6292C103.072 47.7046 102.82 47.7083 102.583 47.6399C102.089 47.4983 101.629 47.2601 101.228 46.9393C101.107 46.867 101.002 46.7711 100.918 46.6572C100.879 46.6013 100.859 46.5348 100.859 46.4668C100.859 46.3987 100.879 46.3323 100.918 46.2763" fill="#FF725E"/>
<path d="M103.406 44.3205C103.236 44.3205 103.302 45.4302 102.404 46.2766C101.506 47.1229 100.312 47.0759 100.312 47.2169C100.312 47.2875 100.589 47.4144 101.092 47.3956C101.743 47.3626 102.362 47.1032 102.841 46.6621C103.298 46.2354 103.572 45.6495 103.608 45.0258C103.622 44.5744 103.481 44.3064 103.406 44.3205Z" fill="#263238"/>
<path d="M103.091 32.8569C103.213 33.1296 104.224 32.9321 105.441 33.0026C106.659 33.0732 107.642 33.3365 107.792 33.0779C107.854 32.9556 107.67 32.7017 107.261 32.4572C106.718 32.1615 106.114 31.9927 105.496 31.9634C104.878 31.9341 104.261 32.045 103.692 32.2879C103.241 32.4948 103.034 32.7252 103.091 32.8569Z" fill="#263238"/>
<path d="M93.7149 33.4353C93.9312 33.6563 94.7211 33.3648 95.6897 33.2896C96.6583 33.2143 97.4905 33.3366 97.6645 33.078C97.7397 32.9557 97.594 32.73 97.2225 32.5325C96.7145 32.292 96.15 32.196 95.5909 32.2551C95.0313 32.2954 94.494 32.4907 94.0393 32.8194C93.7102 33.0827 93.6161 33.3272 93.7149 33.4353Z" fill="#263238"/>
<path d="M116.256 26.7115C115.433 25.7711 114.14 25.3997 112.918 25.1129C107.639 23.8838 102.233 23.2856 96.8135 23.3308C96.3057 24.5157 97.1238 25.9169 98.2241 26.5705C99.3243 27.224 100.664 27.3604 101.92 27.6378C103.175 27.9152 104.501 28.4324 105.159 29.5186C105.86 30.6988 105.63 32.241 106.264 33.4541C107.365 35.5418 110.529 35.8051 111.615 37.9116C112.438 39.4962 111.723 41.4004 111.728 43.1872C111.729 44.0938 111.923 44.9897 112.298 45.8152C112.673 46.6407 113.219 47.3768 113.901 47.9744C114.583 48.572 115.384 49.0174 116.251 49.2808C117.119 49.5442 118.033 49.6196 118.931 49.5019C118.408 43.1449 117.888 36.7894 117.37 30.4355C117.267 29.1377 117.121 27.713 116.256 26.7115Z" fill="#263238"/>
<path d="M131.185 40.8595C130.061 40.1072 128.707 39.5101 128.129 38.2875C127.292 36.5102 128.477 34.1122 127.278 32.5559C126.187 31.1453 123.61 31.5731 122.576 30.1108C121.767 28.9683 122.345 27.7599 121.95 26.7254C121.555 25.691 119.886 24.9434 118.805 25.2255L111.944 38.9129C111.733 43.2105 111.239 45.5521 112.48 47.8748C113.162 49.1491 113.99 50.3669 114.361 51.7587C114.733 53.1504 114.615 54.8055 113.576 55.807C118.776 55.4873 123.224 52.116 127.32 48.8858L131.65 45.4674C132.13 45.1495 132.523 44.7162 132.793 44.2073C133.343 42.9848 132.304 41.6118 131.185 40.8595Z" fill="#263238"/>
<path d="M127.287 47.607C127.117 47.6878 126.939 47.7494 126.756 47.7903C126.225 47.9219 125.677 47.9601 125.133 47.9032C124.268 47.82 123.44 47.512 122.731 47.0098C121.789 46.3226 121.122 45.3226 120.85 44.1886C120.681 43.5364 120.644 42.857 120.742 42.1903C120.881 41.4877 121.112 40.8063 121.428 40.1638C121.767 39.4937 122.006 38.7777 122.138 38.0385C122.207 37.6602 122.19 37.2714 122.089 36.9005C121.988 36.5295 121.806 36.1858 121.555 35.8944C121 35.3348 120.107 35.3019 119.256 35.0903C118.795 34.9972 118.372 34.7679 118.043 34.4321C117.734 34.0635 117.545 33.6089 117.502 33.1296C117.38 32.1892 117.662 31.2488 117.709 30.3696C117.752 29.9232 117.692 29.4729 117.535 29.053C117.359 28.6443 117.044 28.3111 116.646 28.1126C115.828 27.6848 114.869 27.7318 113.943 27.7835C113.003 27.8804 112.054 27.7397 111.183 27.3744C110.342 27.004 109.618 26.4105 109.09 25.6582C108.629 24.9249 108.286 24.1236 108.075 23.2837C107.875 22.5095 107.596 21.7579 107.242 21.0409C106.877 20.3912 106.376 19.827 105.775 19.3858C104.777 18.655 103.573 18.261 102.336 18.261C101.099 18.261 99.8943 18.655 98.8964 19.3858C98.204 19.8713 97.6038 20.4763 97.1238 21.1725C96.7232 21.7745 96.3949 22.4216 96.1458 23.1003C96.149 23.0523 96.1585 23.0049 96.174 22.9593C96.2022 22.8699 96.2351 22.7289 96.3009 22.5596C96.4844 22.0486 96.7275 21.5609 97.025 21.1067C97.4973 20.3777 98.0979 19.7405 98.7977 19.2259C99.7228 18.5499 100.819 18.1474 101.962 18.0645C103.368 17.9813 104.76 18.3775 105.912 19.1883C106.547 19.6471 107.076 20.2373 107.463 20.9186C107.829 21.6498 108.118 22.4173 108.324 23.2085C108.534 24.0178 108.867 24.79 109.311 25.4983C109.812 26.2032 110.494 26.759 111.286 27.1064C112.115 27.4439 113.016 27.5683 113.905 27.4685C114.845 27.4214 115.847 27.3556 116.759 27.8305C117.222 28.059 117.587 28.4461 117.789 28.9214C117.965 29.3825 118.033 29.8781 117.986 30.3696C117.93 31.31 117.657 32.2127 117.77 33.0826C117.806 33.5013 117.97 33.8986 118.24 34.2205C118.533 34.5121 118.904 34.7129 119.308 34.7988C119.717 34.907 120.145 34.9587 120.568 35.0715C121.004 35.1673 121.407 35.3784 121.734 35.6828C122.012 36.0052 122.215 36.3858 122.327 36.7966C122.439 37.2074 122.458 37.6381 122.383 38.0573C122.244 38.8218 121.994 39.5617 121.64 40.2531C121.323 40.8791 121.092 41.5449 120.953 42.2326C120.855 42.8683 120.884 43.5171 121.038 44.1416C121.297 45.2286 121.93 46.1903 122.825 46.8593C123.507 47.3553 124.305 47.6692 125.143 47.7715C125.861 47.8564 126.59 47.8005 127.287 47.607Z" fill="#455A64"/>
<path d="M132.91 37.7751C133.014 37.8892 133.092 38.0238 133.141 38.17C133.283 38.5968 133.268 39.0606 133.098 39.4772C132.98 39.7813 132.788 40.0512 132.539 40.2624C132.235 40.5097 131.866 40.6647 131.476 40.7091C131.004 40.7665 130.526 40.6928 130.093 40.4963C129.66 40.2997 129.289 39.9878 129.022 39.5947C128.709 39.1416 128.508 38.6213 128.434 38.076C128.371 37.4901 128.414 36.8976 128.561 36.3269C128.81 35.1561 129.403 33.9759 129.233 32.6593C129.215 32.3363 129.131 32.0204 128.986 31.7309C128.841 31.4415 128.639 31.1846 128.392 30.976C127.806 30.6191 127.105 30.5028 126.436 30.6516C125.693 30.8129 124.927 30.8415 124.174 30.7362C123.774 30.633 123.416 30.4079 123.149 30.0921C122.894 29.7731 122.711 29.4025 122.613 29.0059C122.472 28.2434 122.428 27.4662 122.481 26.6926C122.492 25.9687 122.35 25.2508 122.063 24.5861C121.517 23.3202 120.508 22.3109 119.242 21.7649C118.033 21.2477 116.731 21.3558 115.56 21.4499C114.453 21.6068 113.328 21.5877 112.226 21.3935C111.322 21.1916 110.467 20.8076 109.716 20.265C109.149 19.861 108.647 19.3744 108.225 18.8215C107.856 18.3592 107.571 17.8355 107.383 17.2745C107.654 17.7914 107.968 18.2838 108.324 18.7462C109.324 19.9882 110.72 20.8495 112.278 21.1866C113.359 21.3543 114.46 21.3543 115.541 21.1866C116.712 21.0831 118.062 20.9562 119.355 21.4922C120.694 22.0564 121.767 23.1111 122.354 24.4403C122.659 25.1419 122.811 25.8998 122.801 26.6644C122.748 27.4128 122.791 28.1648 122.928 28.9025C122.99 29.2538 123.148 29.581 123.385 29.8482C123.621 30.1153 123.927 30.312 124.268 30.4165C124.986 30.5121 125.714 30.4835 126.422 30.3319C127.165 30.1714 127.942 30.3099 128.585 30.7174C128.861 30.9506 129.087 31.2377 129.248 31.561C129.41 31.8844 129.504 32.2373 129.525 32.5982C129.59 33.2665 129.522 33.9411 129.323 34.5824C129.158 35.2031 128.956 35.7815 128.82 36.3551C128.671 36.8966 128.625 37.4611 128.683 38.0196C128.747 38.525 128.929 39.0082 129.215 39.4302C129.458 39.7971 129.796 40.0909 130.194 40.2798C130.592 40.4687 131.033 40.5456 131.472 40.5022C131.831 40.4662 132.174 40.3293 132.459 40.1073C132.697 39.9177 132.884 39.6722 133.004 39.3926C133.177 39.0001 133.21 38.5605 133.098 38.1465C133.042 38.0196 132.979 37.8956 132.91 37.7751Z" fill="#263238"/>
<path d="M79.1106 48.4534C79.023 48.9116 79.0944 49.386 79.3128 49.7982C79.4342 50.0357 79.6069 50.2432 79.8183 50.4059C80.0297 50.5685 80.2746 50.6821 80.5353 50.7386C80.8812 50.7905 81.2347 50.745 81.5562 50.6071C81.8776 50.4692 82.1542 50.2445 82.355 49.958C82.5793 49.6214 82.6822 49.2184 82.6465 48.8155C82.599 48.3709 82.4699 47.9389 82.2656 47.5412C81.8707 46.709 81.1795 45.8391 81.1042 44.6871C81.0638 44.1041 81.1453 43.5191 81.3437 42.9694C81.542 42.4197 81.8528 41.9174 82.2562 41.4945C82.679 41.0474 83.1833 40.6851 83.742 40.4272C84.3149 40.1742 84.919 39.9987 85.5382 39.9052C86.1351 39.814 86.7222 39.6676 87.292 39.468C87.8245 39.2767 88.2724 38.9038 88.5568 38.4147C88.7989 37.9204 88.8982 37.3684 88.8437 36.8208C88.7968 36.2834 88.6765 35.755 88.4863 35.2503C88.1337 34.2535 87.6823 33.2943 87.6023 32.3022C87.527 31.389 87.725 30.4741 88.1713 29.6738C88.5561 29.0349 89.0587 28.4748 89.6524 28.0234C90.0832 27.6801 90.4887 27.3061 90.8655 26.9043C91.1759 26.5547 91.4112 26.145 91.5567 25.7006C91.5567 25.7006 91.5567 25.7335 91.5567 25.7947C91.5446 25.8861 91.5225 25.976 91.4909 26.0627C91.3761 26.3984 91.199 26.7095 90.969 26.9796C90.6023 27.3992 90.2029 27.7891 89.7746 28.1456C89.2083 28.5964 88.7301 29.148 88.3641 29.7725C87.9543 30.5389 87.7778 31.4085 87.8563 32.274C87.9409 33.2144 88.3829 34.1547 88.7543 35.1516C88.9576 35.6796 89.0858 36.2336 89.1352 36.7972C89.198 37.3999 89.0887 38.008 88.8202 38.5511C88.5042 39.102 88.005 39.5246 87.4096 39.7454C86.8218 39.9573 86.2159 40.1146 85.5993 40.2156C85.0047 40.3052 84.4245 40.4728 83.8737 40.714C83.3439 40.9527 82.865 41.2911 82.4631 41.7108C82.0852 42.1034 81.7931 42.5704 81.6053 43.082C81.4175 43.5935 81.3382 44.1386 81.3722 44.6824C81.4287 45.7357 82.0728 46.5632 82.4819 47.4472C82.6952 47.875 82.826 48.3392 82.8675 48.8155C82.9059 49.2695 82.7826 49.7224 82.5195 50.0944C82.2931 50.408 81.9829 50.6516 81.6245 50.7971C81.2661 50.9426 80.874 50.9842 80.493 50.9172C80.0381 50.8011 79.639 50.5279 79.3662 50.1458C79.0934 49.7637 78.9646 49.2975 79.0025 48.8296C79.0146 48.6985 79.0513 48.5709 79.1106 48.4534Z" fill="#263238"/>
<path d="M80.8268 77.1258C80.8268 77.1258 81.6167 70.8017 84.6636 67.6419C87.7105 64.4822 100.462 60.5232 100.462 60.5232C100.462 60.5232 100.989 65.0323 104.045 66.1185C107.285 67.2752 110.943 66.8426 113.313 64.0873C114.746 62.3214 115.753 60.2491 116.256 58.0311C116.256 58.0311 131.486 59.4417 133.968 63.6077C136.451 67.7736 139.662 83.9624 139.662 83.9624L125.425 86.9858L127.362 114.85H89.549L90.2872 88.6973L79.9899 90.169L80.8268 77.1258Z" fill="#455A64"/>
<path d="M122.618 87.8793C122.573 87.674 122.556 87.4638 122.566 87.2539C122.566 86.8496 122.566 86.2618 122.566 85.5424C122.566 84.0942 122.59 82.1006 122.637 79.9001C122.684 77.6995 122.74 75.7012 122.801 74.2577C122.829 73.5336 122.858 72.9506 122.886 72.5462C122.882 72.335 122.909 72.1244 122.966 71.9208C123.007 72.1266 123.023 72.3366 123.013 72.5462C123.013 72.9506 123.013 73.5383 123.013 74.2577C123.013 75.7059 122.989 77.6995 122.942 79.9001C122.895 82.1006 122.839 84.0989 122.778 85.5424C122.749 86.2618 122.717 86.8449 122.693 87.2492C122.698 87.4618 122.673 87.674 122.618 87.8793Z" fill="#263238"/>
<path d="M86.7794 76.4065C86.8687 76.3829 87.7574 79.2276 88.7636 82.7212C89.7698 86.2147 90.5222 89.097 90.4328 89.1206C90.3435 89.1441 89.4595 86.2994 88.4486 82.8105C87.4377 79.3217 86.6948 76.4347 86.7794 76.4065Z" fill="#263238"/>
<path d="M132.398 62.5827C132.398 62.6391 131.721 62.7661 130.682 63.161C127.956 64.2042 125.688 66.1779 124.278 68.7329C123.742 69.7062 123.521 70.3691 123.464 70.3503C123.475 70.1889 123.512 70.0303 123.572 69.8801C123.704 69.4519 123.871 69.0352 124.071 68.6341C124.732 67.3037 125.65 66.1171 126.772 65.1423C127.894 64.1676 129.197 63.424 130.606 62.9542C131.031 62.81 131.466 62.7015 131.909 62.6297C132.068 62.584 132.233 62.5681 132.398 62.5827Z" fill="#263238"/>
<path d="M84.4378 68.9162C84.5225 68.9162 84.8234 69.7767 85.1055 70.8816C85.3876 71.9866 85.5428 72.9035 85.4535 72.927C85.3641 72.9505 85.0679 72.0665 84.7858 70.9616C84.5037 69.8566 84.3485 68.9397 84.4378 68.9162Z" fill="#263238"/>
<path d="M137.152 84.4749C137.152 84.4749 132.887 106.132 132.398 107.985C131.909 109.837 131.124 114.826 125.956 115.86C118.983 117.271 91.6038 116.279 91.6038 116.279L96.7759 109.743L120.732 103.024L124.024 87.2679L137.152 84.4749Z" fill="#FFBE9D"/>
<path d="M96.3197 106.085C96.4148 106.239 96.4831 106.407 96.5219 106.584C96.6623 107.056 96.7537 107.541 96.7946 108.032C96.9389 109.661 96.5986 111.297 95.8166 112.734C95.4006 113.534 94.8734 114.272 94.2508 114.925C93.7337 115.455 93.1104 115.87 92.4218 116.143C91.9596 116.317 91.4753 116.426 90.983 116.467C90.8039 116.496 90.6213 116.496 90.4423 116.467C91.0833 116.349 91.7127 116.174 92.323 115.945C92.9649 115.657 93.5434 115.245 94.0252 114.732C94.6116 114.092 95.114 113.379 95.5204 112.612C96.2735 111.22 96.6313 109.65 96.5548 108.07C96.5078 106.828 96.2586 106.104 96.3197 106.085Z" fill="#EB996E"/>
<path d="M73.3929 80.4549C73.3929 80.4549 77.2533 93.4465 78.8519 99.0606C80.554 105.023 84.2733 118.564 92.2008 116.162C98.2334 114.328 96.4608 106.513 96.4608 106.513L90.2871 88.674L85.4864 89.478L80.8267 77.4457L73.3929 80.4549Z" fill="#FFBE9D"/>
<path d="M94.3496 107.077C94.5652 106.11 94.5652 105.106 94.3496 104.139C94.0947 103.097 93.6586 102.109 93.0613 101.219C92.3084 100.132 91.4721 99.1055 90.5599 98.1485C89.6436 97.1741 88.8041 96.1303 88.049 95.0264C87.4455 94.1155 86.9187 93.1562 86.4739 92.1582C86.1729 91.4873 85.9154 90.7979 85.7027 90.094C85.6051 89.8403 85.5419 89.5746 85.5146 89.3041C85.636 89.5449 85.7382 89.7949 85.8203 90.0517C86.0084 90.5219 86.2905 91.2272 86.6854 92.0594C87.1519 93.0322 87.6927 93.9675 88.3029 94.8571C89.0616 95.9395 89.8976 96.9656 90.8044 97.9275C91.7282 98.8969 92.5682 99.9429 93.3152 101.054C93.9234 101.985 94.3523 103.022 94.58 104.111C94.7269 104.843 94.7269 105.597 94.58 106.33C94.5424 106.527 94.4873 106.721 94.4155 106.908C94.4019 106.968 94.3798 107.025 94.3496 107.077Z" fill="#EB996E"/>
<path d="M80.8267 77.4455C80.8267 77.4455 80.8549 72.2733 80.3988 70.7969L76.7313 62.6061C76.7313 62.6061 75.7909 62.0278 75.3207 63.6593C74.8505 65.2909 76.2987 66.9742 76.2987 66.9742L76.4116 69.1183L74.9446 67.9052L72.0905 62.5544C72.0905 62.5544 70.1204 58.6565 69.6125 59.263C69.1047 59.8696 69.2693 61.1438 70.1157 62.813L72.0435 66.631C72.0435 66.631 72.335 67.3081 71.3241 66.3254C70.3131 65.3426 68.1173 60.5843 67.6612 59.9871C67.2051 59.39 66.5845 57.6361 65.6018 58.0452C64.6191 58.4543 65.8792 60.5325 65.8792 60.5325L69.0248 67.5855C69.0248 67.5855 67.2004 64.9148 66.8713 64.4634C66.5422 64.012 65.7805 62.4839 65.1833 61.7033C64.5862 60.9228 63.9326 60.6219 63.5 60.81C63.2889 60.8859 63.1148 61.0398 63.0133 61.24C62.9119 61.4401 62.8909 61.6715 62.9546 61.8867L66.3165 67.7171C66.3165 67.7171 67.9951 70.3361 67.9951 70.5383C67.9951 70.7405 66.5281 69.6731 66.5281 69.6731L65.1175 67.877C65.1175 67.877 63.594 65.1875 62.7947 65.3332C61.9954 65.479 62.1364 66.0761 62.1364 66.0761L64.9576 70.9756L69.0671 76.2606L73.4587 80.624L75.9978 79.8059L80.8267 77.4455Z" fill="#FFBE9D"/>
<path d="M72.7441 76.5712C72.872 76.0413 72.9569 75.502 72.998 74.9584C73.1626 73.9898 73.4964 72.5369 74.686 71.6012C75.1667 71.2 75.7671 70.9701 76.3928 70.9476H76.6044V70.722C76.5386 69.7157 76.5762 68.7565 76.5386 68.1218C76.569 67.7723 76.5208 67.4205 76.3975 67.092C76.3322 67.4298 76.2991 67.773 76.2988 68.1171C76.2267 69.0038 76.2 69.8936 76.2189 70.7831L76.4116 70.5574C75.6912 70.5556 74.9933 70.8087 74.4415 71.2721C73.839 71.7583 73.3793 72.3984 73.1109 73.1247C72.9 73.7032 72.7671 74.3072 72.7159 74.9208C72.6344 75.4687 72.6439 76.0264 72.7441 76.5712Z" fill="#EB996E"/>
<defs>
<linearGradient id="paint0_linear_907_4797" x1="16.2983" y1="85.0348" x2="40.5722" y2="85.0348" gradientUnits="userSpaceOnUse">
<stop stop-color="#6666FF"/>
<stop offset="0.0729167" stop-color="#6872F4"/>
<stop offset="0.520833" stop-color="#72BFAF"/>
<stop offset="1" stop-color="#7BFC79"/>
</linearGradient>
<linearGradient id="paint1_linear_907_4797" x1="176.674" y1="72.3715" x2="195.155" y2="72.3715" gradientUnits="userSpaceOnUse">
<stop stop-color="#6666FF"/>
<stop offset="0.0729167" stop-color="#6872F4"/>
<stop offset="0.520833" stop-color="#72BFAF"/>
<stop offset="1" stop-color="#7BFC79"/>
</linearGradient>
<linearGradient id="paint2_linear_907_4797" x1="54.8907" y1="85.2995" x2="160.703" y2="85.2995" gradientUnits="userSpaceOnUse">
<stop stop-color="#EA3CD5"/>
<stop offset="1" stop-color="#E5FE57"/>
</linearGradient>
</defs>
</svg>
