<svg width="21" height="21" viewBox="0 0 21 21" fill="none" xmlns="http://www.w3.org/2000/svg">
<path d="M16.023 20.9974H4.34946V7.55906L11.2986 0L12.1235 0.682415C12.3068 0.822398 12.4276 0.979878 12.486 1.15486C12.5443 1.32983 12.5734 1.53106 12.5734 1.75853V2.021L11.4486 7.55906H19.4976C19.8809 7.55906 20.2267 7.72092 20.535 8.04463C20.8432 8.36834 20.9974 8.73142 20.9974 9.13387V11.2861C20.9974 11.4786 20.9766 11.7017 20.9349 11.9554C20.8932 12.2091 20.8307 12.4322 20.7474 12.6247L17.8478 19.6588C17.6978 20.0263 17.452 20.3412 17.1104 20.6037C16.7688 20.8662 16.4063 20.9974 16.023 20.9974ZM2.84965 7.55906V20.9974H0V7.55906H2.84965Z" fill="#CCCCCC"/>
</svg>
