<svg width="18" height="18" viewBox="0 0 18 18" fill="none" xmlns="http://www.w3.org/2000/svg">
<path d="M6.3 13.815H11.475C11.685 13.815 11.8612 13.77 12.0037 13.68C12.1462 13.59 12.27 13.455 12.375 13.275L14.13 9.18C14.16 9.105 14.1863 8.9925 14.2088 8.8425C14.2313 8.6925 14.2425 8.58 14.2425 8.505V7.965C14.2425 7.755 14.1938 7.60125 14.0963 7.50375C13.9988 7.40625 13.845 7.3575 13.635 7.3575H8.82L9.4725 4.2525C9.5025 4.1325 9.5025 4.02 9.4725 3.915C9.4425 3.81 9.39 3.72 9.315 3.645L8.8425 3.15L5.22 7.065L5.04 7.425C4.98 7.545 4.95 7.6725 4.95 7.8075V12.465C4.95 12.81 5.085 13.1213 5.355 13.3988C5.625 13.6763 5.94 13.815 6.3 13.815ZM9 18C7.77 18 6.6075 17.7637 5.5125 17.2912C4.4175 16.8187 3.46125 16.1737 2.64375 15.3562C1.82625 14.5387 1.18125 13.5825 0.70875 12.4875C0.23625 11.3925 0 10.23 0 9C0 7.755 0.23625 6.585 0.70875 5.49C1.18125 4.395 1.82625 3.4425 2.64375 2.6325C3.46125 1.8225 4.4175 1.18125 5.5125 0.70875C6.6075 0.23625 7.77 0 9 0C10.245 0 11.415 0.23625 12.51 0.70875C13.605 1.18125 14.5575 1.8225 15.3675 2.6325C16.1775 3.4425 16.8187 4.395 17.2912 5.49C17.7637 6.585 18 7.755 18 9C18 10.23 17.7637 11.3925 17.2912 12.4875C16.8187 13.5825 16.1775 14.5387 15.3675 15.3562C14.5575 16.1737 13.605 16.8187 12.51 17.2912C11.415 17.7637 10.245 18 9 18Z" fill="#6666FF"/>
</svg>
