<svg width="14" height="16" viewBox="0 0 14 16" fill="none" xmlns="http://www.w3.org/2000/svg">
<path d="M5.98319 12.4H5.88319V12.5V13.5V13.6H5.98319H12.9832H13.0832V13.5V12.5V12.4H12.9832H5.98319ZM2.42677 13L1.20748 14.2193L1.13702 14.2898L1.20723 14.3605L1.91223 15.0705L1.98294 15.1417L2.0539 15.0707L4.0539 13.0707L4.12461 13L4.0539 12.9293L2.0539 10.9293L1.98344 10.8588L1.91273 10.929L1.20273 11.634L1.13152 11.7048L1.20248 11.7757L2.42677 13ZM5.98319 7.4H5.88319V7.5V8.5V8.6H5.98319H12.9832H13.0832V8.5V7.5V7.4H12.9832H5.98319ZM2.42677 8L1.20748 9.21929L1.13702 9.28975L1.20723 9.36046L1.91223 10.0705L1.98294 10.1417L2.0539 10.0707L4.0539 8.07071L4.12461 8L4.0539 7.92929L2.0539 5.92929L1.98344 5.85883L1.91273 5.92904L1.20273 6.63404L1.13152 6.70475L1.20248 6.77571L2.42677 8ZM5.98319 2.4H5.88319V2.5V3.5V3.6H5.98319H12.9832H13.0832V3.5V2.5V2.4H12.9832H5.98319ZM2.42677 3L1.20748 4.21929L1.13702 4.28975L1.20723 4.36046L1.91223 5.07046L1.98294 5.14167L2.0539 5.07071L4.0539 3.07071L4.12461 3L4.0539 2.92929L2.0539 0.929289L1.98344 0.858828L1.91273 0.92904L1.20273 1.63404L1.13152 1.70475L1.20248 1.77571L2.42677 3Z" fill="#999999" stroke="#8E8E93" stroke-width="0.2"/>
</svg>
