<svg width="19" height="18" viewBox="0 0 19 18" fill="none" xmlns="http://www.w3.org/2000/svg">
<path d="M8.1725 13.095L14.54 6.7275L13.505 5.715L8.1725 11.0475L5.4725 8.3475L4.46 9.36L8.1725 13.095ZM9.5 18C8.27 18 7.1075 17.7637 6.0125 17.2912C4.9175 16.8187 3.96125 16.1737 3.14375 15.3562C2.32625 14.5387 1.68125 13.5825 1.20875 12.4875C0.73625 11.3925 0.5 10.23 0.5 9C0.5 7.755 0.73625 6.585 1.20875 5.49C1.68125 4.395 2.32625 3.4425 3.14375 2.6325C3.96125 1.8225 4.9175 1.18125 6.0125 0.70875C7.1075 0.23625 8.27 0 9.5 0C10.745 0 11.915 0.23625 13.01 0.70875C14.105 1.18125 15.0575 1.8225 15.8675 2.6325C16.6775 3.4425 17.3187 4.395 17.7912 5.49C18.2637 6.585 18.5 7.755 18.5 9C18.5 10.23 18.2637 11.3925 17.7912 12.4875C17.3187 13.5825 16.6775 14.5387 15.8675 15.3562C15.0575 16.1737 14.105 16.8187 13.01 17.2912C11.915 17.7637 10.745 18 9.5 18ZM9.5 16.65C11.63 16.65 13.4375 15.9038 14.9225 14.4113C16.4075 12.9188 17.15 11.115 17.15 9C17.15 6.87 16.4075 5.0625 14.9225 3.5775C13.4375 2.0925 11.63 1.35 9.5 1.35C7.385 1.35 5.58125 2.0925 4.08875 3.5775C2.59625 5.0625 1.85 6.87 1.85 9C1.85 11.115 2.59625 12.9188 4.08875 14.4113C5.58125 15.9038 7.385 16.65 9.5 16.65Z" fill="white"/>
</svg>
