<svg width="30" height="30" viewBox="0 0 30 30" fill="none" xmlns="http://www.w3.org/2000/svg">
<circle cx="15" cy="15" r="15" fill="white"/>
<path d="M12.1875 11.85L11.4937 10.3687L10.0125 9.675L11.4937 8.98125L12.1875 7.5L12.8813 8.98125L14.3625 9.675L12.8813 10.3687L12.1875 11.85ZM17.25 14.1187L16.6688 12.8812L15.4312 12.3L16.6688 11.7187L17.25 10.4812L17.8312 11.7187L19.0687 12.3L17.8312 12.8812L17.25 14.1187ZM8.56875 15.6187L7.9875 14.3812L6.75 13.8L7.9875 13.2187L8.56875 11.9812L9.15 13.2187L10.3875 13.8L9.15 14.3812L8.56875 15.6187ZM9.1125 21.375L8.25 20.5125L13.875 14.8875L16.875 17.9062L22.4625 11.6437L23.25 12.4125L16.875 19.5937L13.875 16.6125L9.1125 21.375Z" fill="#231F20"/>
</svg>
