<svg width="30" height="30" viewBox="0 0 30 30" fill="none" xmlns="http://www.w3.org/2000/svg">
<circle cx="15" cy="15" r="15" fill="white"/>
<path d="M14.8955 18.4861L13.7884 16.0055L11.3078 14.8984L13.7884 13.7709L14.8955 11.2902L16.0231 13.7709L18.5037 14.8984L16.0231 16.0055L14.8955 18.4861ZM15.039 23.9189C13.3853 23.9189 11.875 23.5328 10.5083 22.7606C9.14151 21.9884 8.00712 20.8916 7.10507 19.4702V22.2584H5.875V17.3586H10.7543V18.5886H8.00712C8.78616 19.8871 9.79072 20.895 11.0208 21.6126C12.2509 22.3301 13.5903 22.6889 15.039 22.6889C16.6928 22.6889 18.1825 22.2071 19.5083 21.2435C20.834 20.28 21.7565 19.0123 22.2759 17.4406L23.4855 17.7071C22.8978 19.5659 21.8283 21.0659 20.2771 22.2071C18.7258 23.3483 16.9798 23.9189 15.039 23.9189ZM5.916 14.0784C6.01167 13.149 6.23035 12.2709 6.57204 11.444C6.91372 10.6171 7.37842 9.84833 7.96612 9.13762L8.84767 10.0192C8.36931 10.6342 7.98662 11.2834 7.6996 11.9668C7.41259 12.6502 7.22808 13.354 7.14607 14.0784H5.916ZM9.99573 8.87111L9.13468 7.96906C9.87272 7.36769 10.6586 6.89617 11.4923 6.55448C12.326 6.2128 13.2007 6.00095 14.1165 5.91895V7.14901C13.4058 7.21735 12.7155 7.39161 12.0458 7.67179C11.3761 7.95197 10.6928 8.35175 9.99573 8.87111ZM19.7953 8.87111C19.1802 8.37908 18.531 7.98614 17.8477 7.69229C17.1643 7.39844 16.4536 7.21735 15.7155 7.14901V5.91895C16.6449 6.00095 17.5231 6.2128 18.3499 6.55448C19.1768 6.89617 19.9456 7.36769 20.6563 7.96906L19.7953 8.87111ZM22.6449 14.0784C22.5766 13.3814 22.3853 12.6775 22.0709 11.9668C21.7565 11.2561 21.3534 10.5932 20.8613 9.97817L21.7224 9.07612C22.3511 9.81416 22.8499 10.6103 23.219 11.4645C23.588 12.3187 23.8067 13.19 23.875 14.0784H22.6449Z" fill="#231F20"/>
</svg>
