<svg width="11" height="11" viewBox="0 0 11 11" fill="none" xmlns="http://www.w3.org/2000/svg">
<path d="M4.68875 8.0025L8.58 4.11125L7.9475 3.4925L4.68875 6.75125L3.03875 5.10125L2.42 5.72L4.68875 8.0025ZM5.5 11C4.74833 11 4.03792 10.8556 3.36875 10.5669C2.69958 10.2781 2.11521 9.88396 1.61563 9.38438C1.11604 8.88479 0.721875 8.30042 0.433125 7.63125C0.144375 6.96208 0 6.25167 0 5.5C0 4.73917 0.144375 4.02417 0.433125 3.355C0.721875 2.68583 1.11604 2.10375 1.61563 1.60875C2.11521 1.11375 2.69958 0.721875 3.36875 0.433125C4.03792 0.144375 4.74833 0 5.5 0C6.26083 0 6.97583 0.144375 7.645 0.433125C8.31417 0.721875 8.89625 1.11375 9.39125 1.60875C9.88625 2.10375 10.2781 2.68583 10.5669 3.355C10.8556 4.02417 11 4.73917 11 5.5C11 6.25167 10.8556 6.96208 10.5669 7.63125C10.2781 8.30042 9.88625 8.88479 9.39125 9.38438C8.89625 9.88396 8.31417 10.2781 7.645 10.5669C6.97583 10.8556 6.26083 11 5.5 11Z" fill="#6666FF"/>
</svg>
